<?xml version="1.0" encoding="UTF-8"?>
<svg id="Layer_1" xmlns="http://www.w3.org/2000/svg" version="1.1" xmlns:xlink="http://www.w3.org/1999/xlink" viewBox="0 0 1920 1024">
  <!-- Generator: Adobe Illustrator 29.3.1, SVG Export Plug-In . SVG Version: 2.1.0 Build 151)  -->
  <defs>
    <style>
      .st0 {
        fill: #174781;
      }

      .st1 {
        fill: #19609f;
      }

      .st2 {
        fill: #eef2f3;
      }

      .st3 {
        fill: #cedbe1;
      }

      .st4 {
        fill: #8ce6fc;
      }

      .st5 {
        fill: #2293d1;
      }

      .st6 {
        fill: #ffbb1f;
      }

      .st7 {
        fill: #feffff;
        opacity: 0;
      }

      .st8 {
        fill: #d3edf4;
      }

      .st9 {
        fill: #2ab5ed;
      }

      .st10 {
        fill: #c2cdd6;
      }

      .st11 {
        fill: #ffcc1f;
      }

      .st12 {
        fill: #ffc522;
      }

      .st13 {
        fill: #153970;
      }

      .st14 {
        fill: #1b70af;
      }

      .st15 {
        fill: #3ab5ea;
      }

      .st16 {
        font-family: DFPOP1-W9-HK-BF, DFPOP1W9-B5;
        font-size: 256px;
        stroke: #ffcc1f;
        stroke-miterlimit: 10;
        stroke-width: 9px;
      }

      .st16, .st17 {
        fill: #1c79b8;
      }

      .st18 {
        fill: #25abe6;
      }

      .st19 {
        fill: #f9b16d;
      }

      .st20 {
        fill: #2082c2;
      }

      .st21 {
        fill: #fefefd;
      }

      .st22 {
        fill: #18447c;
      }

      .st23 {
        fill: #a4b0bc;
      }

      .st24 {
        fill: #fcd4b9;
      }

      .st25 {
        fill: #279fdb;
      }

      .st26 {
        fill: #208dcc;
      }

      .st27 {
        fill: #163c73;
      }

      .st28 {
        fill: #1b5391;
      }

      .st29 {
        fill: #d5dce1;
      }

      .st30 {
        fill: #afbac8;
      }

      .st31 {
        fill: #fcfdfe;
      }

      .st32 {
        fill: #b7c0cb;
      }
    </style>
  </defs>
  <path class="st7" d="M1292,823.3H257.6V187.8h1508.9v635.5h-474.5M731.2,606.8c.2-.6.4-1.2,1.1-2.3.5-1.8,1-3.7,1.8-5.6,0,0,.3-.1,1.1,0,2.2-1.5,5.7-2.7,6.3-4.7,2.6-8.8,5.4-17.8,6.2-26.8,1-11.9.9-24,0-36-.7-8.8-3.4-17.4-5.1-26.1-.7-3.7-3-4.8-6.6-5.1-.1-.8-.2-1.5-.2-3.1,0-1.4-.2-2.8,0-5.1,0-6-.1-12,0-18.9,0-5.3-.2-10.7,0-17,0-34.1,0-68.2,0-102.2,0-6.6-.3-13.3-.3-20.6-1.7-9.2-6-17.5-14.7-20.9-20-8-40.6-14.8-61.4-22.5-2.2-.7-4.3-1.3-7-2.4-1.9-.5-3.9-1.1-6.2-2-.7-.1-1.5-.3-2.8-.9-1.9-.5-3.9-1.1-6.2-2.1-.7-.1-1.5-.3-2.8-.9-.9-.2-1.9-.4-3.2-1.1-.7-.2-1.5-.3-2.9-.9-2.5-.7-5-1.4-8-2.5-1.5-.4-2.9-.8-5-1.6-.5,0-1,0-2-.6-3.8-1.1-7.6-2.3-11.9-3.8-.6,0-1.2-.1-2.3-.7-5.1-1.4-10.1-2.9-15.8-4.8-.5,0-1-.1-2-.7-5.8-1.6-11.6-3.3-18-5.3-.5,0-1-.1-2-.7-4.1-1.1-8.2-2.1-13-3.6-.5,0-1,0-2-.4-12.7-4.1-25.3-6.7-38.7-2.5-19.7,6.1-39.7,11.4-59.4,17.3-13.8,4.2-27.5,9-41.9,13.5-4.9-2.4-9.5-6.3-15.7-4.1-14.3,5.2-28.7,10.3-43,15.7-5.1,1.9-8.4,5.8-9.6,11.8-1.1.6-2.1,1.3-4,2.1-3.4,1.6-6.9,3.2-11,5-2.7,2.2-5.3,4.4-8,6.7,0,0,0,.1-.3.8-1.3,2.6-2.7,5.3-4.6,8.1,0,1-.1,1.9-.1,3.8,0,3-.2,6-.2,9,0,36.9,0,73.8,0,110.7,0,8.8.2,17.6,0,27.3,0,3.7.2,7.4,0,12,0,2.4.1,4.8,0,7.7-.1.6-.2,1.1-1.2,1.6-3-.7-3.6,1.4-4.3,3.5-4.7,13.9-5.9,28.4-6.2,42.9-.1,8.1.5,16.2.9,24.3.6,10.1,3.6,19.5,8.6,28.2.8,1.4,3,1.9,4.9,3.2.1.3.3.5.7,1.4,1.2,2.3,2.3,4.6,3.5,7.6,3.5,5.2,6.7,10.7,10.6,15.6,27,32.8,58.4,61.1,91.2,87.9,12,9.8,24.7,18.9,37.5,28.9,3.6,2.5,7.2,4.9,11.1,8,4.9,3.2,9.7,6.3,15,10,3.9,2.4,7.8,4.9,12.1,7.9,3.9,2.2,7.8,4.4,12,7.1,13.1,7.4,26.5,6.1,39.6-4,3.5-2.2,6.9-4.4,11-6.7,2.5-1.6,4.9-3.3,8-5.1,6.4-4.5,12.8-9.1,19.9-13.8,4.4-3.4,8.9-6.7,14-10.3,31.3-22.7,60.7-47.6,87.8-75.1,11.5-11.6,21.6-24.5,33-36.9,3.1-4.9,6.3-9.9,9.7-15.4.3-.7.5-1.5,1-2.6.1-.3.2-.6,1-1.1Z"/>
  <path class="st27" d="M637.4,282.8c1.9.5,3.9,1.1,6.3,2.1,1.2.6,2,.8,2.8.9,1.9.5,3.9,1.1,6.1,2.1-1.9.7-4,.9-6.2,1.1,0,.2-.2.5-.3.7,5.5,1.8,10.9,3.7,16.1,5.4-.9-2-1.6-3.5-2.3-5,20.3,7.3,40.8,14.1,60.9,22.1,8.7,3.5,12.9,11.7,14.3,21.2-.9-1.2-1.3-2.6-1.8-4-.7,3-.3,5.8-.3,8.6,0,21.3,0,42.6,0,63.9,0,16.8,0,33.6,0,50.4,0,1.9-1.1,4.7,2.6,4.7,0,5.3.2,10.7-.2,16.5-1.1-.7-2.1-1.7-2.3-2.9-.3-2.1,0-4.2,0-6.4q-1.3,5.8-4,6.3c0-43.8-.1-87.1-.1-130.4,0-12.8-4-19-16.1-23.4-23-8.4-46-16.6-69.1-24.7-9.9-3.5-19.8-6.7-29.6-10.3,1.9-.8,3.6-1.2,5.9-1.9-2.3-.9-4.2-1.5-6.1-2.4-.3-.2,0-1.4,0-2.2.5,0,1,0,1.8.6,2,.8,3.5,1.2,5.1,1.6,2.5.7,5,1.4,7.9,2.6,1.2.6,2,.8,2.8.9.9.2,1.9.4,3.3,1.1,1.2.6,2,.8,2.7.9M642.2,288.6c.3,0,.6-.1.9-.3,0,0,.2-.4.2-.4-1.7-.8-3.5-1.5-5.2-2.3-.1.4-.3.8-.4,1.1,1.3.5,2.7,1,4.6,1.8Z"/>
  <path class="st22" d="M455.5,744.1c-12.4-9.4-25-18.5-37.1-28.4-32.8-26.8-64.2-55.1-91.2-87.9-4-4.8-7.1-10.4-10.6-16.2,2.5-.7,4.8-.7,7.2-.7,0,0,0,0,0,.3.4.8.8,1.2,1.4,1.8,1.2,1.6,2.1,3,3.1,4.3,18.7,24.6,40.6,46.3,63.8,66.6,19.2,16.7,39.2,32.5,58.6,49-1,.8-1.7,1.3-2.9,2,3.1,2.4,5.9,4.6,8.6,6.9.2.2-.5,1.5-.9,2.2Z"/>
  <path class="st22" d="M718.8,625.9c-10.8,12.3-20.9,25.2-32.4,36.8-27.1,27.5-56.5,52.4-88.5,75.2-3-.9-5.3-1.9-7.5-3,0,0,0-.2,0-.3,0,0,.1,0,.5,0,2.2-1.5,4.1-3,6.3-4.6.8-.5,1.3-1,2.1-1.5.7-.5,1.2-1,1.9-1.5.9-.6,1.5-1.2,2.4-1.9,7.9-6.1,15.7-12,23.2-18.2,7.3-6.2,14.3-12.7,21.8-19.2,12.7-11.9,25.1-23.8,37.7-35.8.7-.7,1.2-1.3,1.9-2,1.4-1.4,2.5-2.7,3.9-4.2,2.6-2.7,4.8-5.2,7.3-7.8,3.3-3.7,6.3-7.4,9.6-11.2,1.1-1.3,2-2.5,3.2-3.8,1-.8,1.8-1.6,2.6-2-1.1,3.1-2.3,5.7-3.5,8.5,2.8-1.3,5.2-2.5,7.6-3.6M597.4,734.5s-.1,0,0,0Z"/>
  <path class="st13" d="M309.9,478.9c-.1-8.8-.3-17.6-.3-26.4,0-36.9,0-73.8,0-110.7,0-3,.2-6,.4-9.7.3-1.5.4-2.4.5-3.2,1.3-2.6,2.7-5.3,4.3-8.2.2-.3.1-.6.1-.6,2.7-2.2,5.3-4.4,8.4-6.4-.7,2.7-3.5,5-.7,8.2-3.5,4.3-6.1,8.6-5.4,14.6,0,2.8,0,5.1,0,7.8,0,2.8,0,5.2,0,8.1-.1,9.2-.2,18-.2,26.8,0,14.6.2,29.1.1,44.1-.2,2.6-.2,4.8-.2,6.9-.2,16.6-.3,33.1-.8,49.7-1.3-3.1-2.2-6.2-3.2-9.3-.8,1.6-.7,3.3-1,4.9-.3,1.2-1.2,2.2-1.9,3.3Z"/>
  <path class="st22" d="M406.9,283.2c13.7-4.5,27.4-9.4,41.2-13.6,19.7-6,39.7-11.3,59.4-17.3,13.4-4.1,26-1.6,39,3.1,2.1,2,3.9,3.5,6.7,5.7-2.8-.8-4.5-1.7-6.1-1.7-1.4,0-2.8,1.1-4.7,1.7-12.1-3.7-23.8-5.8-35.9-.7-.6.2-.8.3-1.5.5-4.7,1.3-9.1,2.6-13.8,4-.7.1-1,.3-1.7.4-.6.2-.9.4-1.5.5-.9.2-1.6.4-2.4.6-.5.1-.8.3-1.4.5-.6.1-1,.3-1.6.3-.9.2-1.4.4-2.3.7-.7.1-1,.3-1.7.4-.6.2-.9.4-1.4.5-.6.1-.9.2-1.6.3-.9.2-1.4.5-2.3.8-2.8.7-5.2,1.3-7.5,2-13.9,4.2-27.9,8.4-41.8,12.3.3-1.6.5-2.9.8-4.4-4.9,1.5-9.4,3.1-14,4.3-1.1.3-2.5-.6-3.8-.9Z"/>
  <path class="st8" d="M312,602.9c-1.5-.9-3.7-1.5-4.5-2.9-5-8.7-8.1-18.1-8.6-28.2-.5-8.1-1.1-16.2-.9-24.3.2-14.5,1.4-29,6.2-42.9.7-2.1,1.3-4.2,4.8-3.1.7,5.1.8,9.8.9,14.9,0,7.8,0,15.2,0,23.1,0,10.5,0,20.5,0,30.9,0,5.5,0,10.6,0,16.1.3,3.5.7,6.5,1,9.9.4,2.4.8,4.5,1.2,6.5Z"/>
  <path class="st2" d="M736,501c3.4-.5,5.7.6,6.5,4.3,1.7,8.7,4.4,17.3,5.1,26.1.9,11.9,1,24.1,0,36-.8,9.1-3.6,18-6.2,26.8-.6,2-4.1,3.1-6.6,4.2,0-6.1.3-11.7.8-17.6.2-1.1.3-1.9.8-2.7,5-1.3,5.4-5.3,5.5-9.1.1-10.9.2-21.9,0-32.8,0-3.1-.6-6.3-1.6-9.2-.5-1.3-2.7-2-4.2-3.4-.2-2.5-.3-4.6-.3-7.1.2-5.5.3-10.5.4-15.5Z"/>
  <path class="st28" d="M406.5,283.1c1.6.4,3,1.2,4.1,1,4.6-1.2,9.1-2.7,14-4.3-.3,1.5-.6,2.8-1.1,4.6-6.1,2.6-11.9,4.7-18,6.7-1.7,0-3.1.2-4.5,0-2.4-5.6-6.6-5.4-11.4-4.3-2.4.2-4.7,1.2-6.7.9-8.8-1.1-16.5,2.3-24.1,5.8-3.8,1.8-6.7,5.5-10.5,6.8-3.5,1.2-6,2.2-6.8,5.9,0,.2-2,0-3,0,.6-5.7,3.9-9.6,9-11.5,14.3-5.4,28.7-10.4,43-15.7,6.2-2.3,10.8,1.6,16.1,4.1Z"/>
  <path class="st13" d="M735.6,456.5c-3.8.4-2.7-2.4-2.7-4.3,0-16.8,0-33.6,0-50.4,0-21.3,0-42.6,0-63.9,0-2.8-.3-5.6.3-8.6.5,1.4.9,2.8,1.7,4.4.5,6.8.8,13.4.8,20,0,34.1,0,68.2,0,102.7Z"/>
  <path class="st27" d="M542.8,261c1.4-.6,2.8-1.6,4.3-1.7,1.7,0,3.3.9,6.1,1.7-2.8-2.2-4.6-3.7-6.4-5.5.5-.3.9-.3,1.8.2,4.7,1.5,8.9,2.5,13.1,3.5.5,0,1,.1,1.9.7,5.6,2.2,10.7,4,15.7,5.7-.1.4-.2.7-.4,1.1-4.5-1.2-9-2.4-13.5-3.6,0,.4-.2.8-.3,1.2,6.9,2.1,13.9,4.2,20.9,6.3-1.7-2.1-3.1-3.8-4.5-5.5.5,0,1,.1,1.9.7,5.6,1.9,10.7,3.4,15.9,4.8.6,0,1.2.1,2.1.7,1.5,1.2,2.7,1.8,4,2.5-.8.7-1.4,1.2-1.4,1.2,1.9,1.9,3.8,3.7,5.2,5.4-2.7-.7-4.9-1.4-7.1-2-11.6-3.5-23.2-7-34.9-10.4-8.2-2.4-16.4-4.8-24.7-7.2M590.3,271.9c.5-.2,1-.4,1.5-.6-.7-.3-1.4-.7-2.1-1,0,.5,0,.9.5,1.6Z"/>
  <path class="st9" d="M545.1,774.1c-12.4,9.7-25.9,11-39.1,3,0-2.8-4.5-5.2.4-7.1,12.1,7.7,23.4,6.3,34.5-1.3,1.4,2,2.8,3.7,4.2,5.4Z"/>
  <path class="st1" d="M338.2,306.4c1.3-.1,3.2.1,3.3,0,.9-3.7,3.3-4.8,6.8-5.9,3.8-1.3,6.8-5,10.5-6.8,7.6-3.6,15.2-7,24.1-5.8,2.1.3,4.3-.8,6.5-.7-12.8,5.2-25.6,9.9-38.3,14.6-3.9,1.4-5.4,4.1-4.4,8.3-1.2,1-2.1,1.9-3.4,2.7-2.2.9-4.1,1.8-6.2,2.7-.9.3-1.4.6-2.4.8-1.5.2-2.6.5-3.7.4.8-1.9,1.6-3.4,2.4-4.9.5-1.1,1-2.2,1.4-3.3,1.1-.6,2.1-1.3,3.5-2Z"/>
  <path class="st14" d="M583.9,748.4c-6.4,4.5-12.8,9.1-19.9,13.6-1.3-2.1-1.8-4.1-2.1-6.4,6.4-4.5,12.5-8.7,18.9-12.6,1.2,2,2.2,3.7,3.2,5.5Z"/>
  <path class="st28" d="M455.7,744.4c.1-1.1.9-2.3.7-2.5-2.7-2.3-5.5-4.5-8.6-6.9,1.2-.7,2-1.2,3.3-1.9,7.3,4.8,14,9.7,20.7,15-1.8,1.6-3.5,2.8-5.2,3.9-3.6-2.5-7.2-4.9-11-7.7Z"/>
  <path class="st0" d="M719.1,625.9c-2.7,1.2-5.1,2.3-7.9,3.7,1.2-2.8,2.4-5.5,3.6-8.8,3.1-5.2,6.1-9.7,9.3-13.8-.2,2.4-.6,4.5-1,6.7,2.2-1,4-1.8,5.8-2.6-3.1,4.9-6.3,9.9-9.8,14.9Z"/>
  <path class="st28" d="M728.9,471q2.6-1,3.9-6.8c0,2.1-.2,4.3,0,6.4.2,1.2,1.2,2.2,2.2,3.4.4,6,.5,12,0,18.5-1.5-1.3-2.4-3-3.4-4.8-.9,1.4-1.8,2.8-2.8,3.8,0-7.1,0-13.8,0-20.5Z"/>
  <path class="st25" d="M735.9,500.6c0,5.4-.1,10.4-.6,15.9-1.8,3.1-3.2,5.6-4.5,8.1-.7,1.4-1.3,2.9-1.9,3.8,0-6.8,0-13.2.4-19.6,1-3.2,1.6-6.2,2.4-10,.8,1.5,1.2,2.3,1.4,2.8.8-1.2,1.6-2.4,2.4-3.7.1.8.2,1.5.4,2.7Z"/>
  <path class="st26" d="M493.7,770c-3.9-2.4-7.8-4.9-11.7-7.8,0-3.5-4.4-5.4-1.9-9,5.5,3.3,10.6,6.5,15.8,9.9,0,.2.1.5,0,.9-.8,2.3-1.5,4.2-2.3,6M485.2,762.5s.1,0,0,0Z"/>
  <path class="st5" d="M309.9,516c-.1-4.7-.3-9.3-.5-14.4,0-1,.1-1.5.6-2.2,1.4.1,2.4.3,3.6.6.3,1.4.6,3,.9,4.5.4,0,.9-.1,1.3-.2,0-3.4,0-6.8.2-10.2.2,0,.5,0,.6.5.2,6.1.2,11.8.2,17.9-.3,5.8-.6,11.2-1.1,16.3-.8-3.3-1.5-6.3-1.6-9.4,0-3-1.6-3.6-4.1-3.4Z"/>
  <path class="st25" d="M735.4,581.1c-.3,5.6-.7,11.2-1,17.2,0,.4-.3.6-.7.4-4.3-2.7-3.4-7.3-4.9-11.3,0-5.7.1-11,.5-16,.5,2,.9,3.8,1.1,5.6.3,3.2,1.9,4.7,5.1,4.2Z"/>
  <path class="st28" d="M584.3,748.2c-1.3-1.6-2.3-3.3-3.3-5.6,2-2.2,3.9-3.9,6.2-5.7,1.3-.8,2.2-1.4,3.2-2,2.3,1,4.6,2,7.3,3-4.1,3.4-8.5,6.7-13.3,10.2Z"/>
  <path class="st28" d="M316.3,494.1s-.3,0-.8-.1c-1.2-2.2-1.8-4.4-2.5-6.6-1.2,1.4-2.2,2.5-3.1,3.6,0-3.7-.2-7.4-.1-11.6.8-1.6,1.7-2.6,2-3.8.4-1.6.2-3.3,1-4.9.9,3.1,1.9,6.2,3.3,9.7.4,4.9.3,9.3.2,13.7Z"/>
  <path class="st18" d="M545.4,773.9c-1.7-1.5-3.1-3.2-4.2-5.3,3.4-2.3,6.5-4.1,9.7-5.6,1.8,1.6,3.5,2.9,5.1,4.2-3.5,2.2-6.9,4.4-10.7,6.7Z"/>
  <path class="st14" d="M479.8,753.2c-2.2,3.7,2.2,5.6,2.1,8.8-5.1-3-10-6.1-15-9.6,1.5-1.5,3.2-2.7,5.3-4.1,2.8,1.5,5.2,3.2,7.6,4.9Z"/>
  <path class="st18" d="M493.9,770.3c.5-2.1,1.3-4,2.4-6.2,3.5,1.7,6.6,3.7,9.7,5.7-4.6,2,0,4.4-.3,6.9-3.9-1.8-7.8-4-11.9-6.5Z"/>
  <path class="st0" d="M334.3,308.5c0,1-.5,2.1-1.1,3.2-.8,1.5-1.6,3-2.5,5.1,0,.6,0,1.1-.3,1.1-.2,0-.6.3-.9.2-.5.2-.7.4-1.3.8-1.4.8-2.4,1.5-3.8,2.2-.4.3-.6.6-.8.9,0,0,0,0-.3,0-.4-.1-.6-.2-.8-.2-3-2.9-.3-5.2.8-8,3.4-2,6.8-3.6,10.7-5.2Z"/>
  <path class="st14" d="M735.6,497.5c-.9,1.7-1.7,2.9-2.5,4.1-.2-.5-.7-1.3-1.4-2.8-.8,3.8-1.4,6.9-2.4,9.6-.4-5.7-.3-11.1-.2-16.5.9-1.5,1.9-2.9,2.8-4.3,1,1.7,2,3.5,3.3,5.2.4,1.4.5,2.8.5,4.6Z"/>
  <path class="st22" d="M609.9,280.7c-1.9-1.8-3.7-3.6-5.6-5.5,0,0,.6-.5,1.4-1.2-1.3-.7-2.5-1.4-3.7-2.4,3.7.8,7.5,2,11.6,3.3.3,1,0,2.3.3,2.4,1.8.9,3.8,1.5,6.1,2.4-2.3.6-4,1.1-6.2,1.9-1.6-.1-2.7-.6-3.8-1M612.2,279.5s.1,0,0,0Z"/>
  <path class="st5" d="M556.4,767.1c-2-1.2-3.6-2.5-5.3-4.3,3.5-2.7,7.1-4.8,10.6-7,.5,2,1,4.1,2,6.2-2.1,1.7-4.5,3.4-7.3,5.1Z"/>
  <path class="st17" d="M312.2,603.1c-.6-2.2-.9-4.3-.9-6.7,1.4-1.2,2.6-2,3.5-2.9.7-.7,1.1-1.6,1.8-2,1.1,4.1,2.1,7.8,2.8,11.6-1.9,3.1-4.3.9-6.4.9-.3-.2-.5-.4-.8-.9Z"/>
  <path class="st22" d="M581.5,265c1.7,2,3.1,3.7,4.7,5.7-7-2.1-14-4.2-20.9-6.3,0-.4.2-.8.3-1.2,4.5,1.2,9,2.4,13.5,3.6.1-.4.2-.7.4-1.1-5.1-1.7-10.2-3.5-15.4-5.5,5.6,1.4,11.4,3,17.5,4.8Z"/>
  <path class="st17" d="M728.8,587.8c1.4,3.6.5,8.2,4.7,10.9-.3,2.1-.7,3.9-1.8,5.9-1.9,0-3.2-.2-3.9-.3-.4-2-.6-3.7-1-5.7.6-3.9,1.3-7.3,2-10.8Z"/>
  <path class="st1" d="M309.8,491.4c1.1-1.5,2.1-2.7,3.2-4,.7,2.2,1.3,4.3,2.3,6.6.4,3.5.4,6.9.4,10.3-.4,0-.9.1-1.3.2-.3-1.6-.6-3.1-.9-4.5-1.1-.2-2.2-.5-3.4-.8-.3-2.5-.4-4.9-.3-7.7Z"/>
  <path class="st1" d="M313,604.3c2.1-.4,4.4,1.8,6.5-1,1.7,2.7,3,5.2,4.3,7.6-2.4,0-4.8,0-7.2.3-1.3-2-2.4-4.3-3.6-7Z"/>
  <path class="st22" d="M659.5,290c1,1.7,1.7,3.2,2.6,5.2-5.1-1.7-10.6-3.6-16.1-5.4,0-.2.2-.5.3-.7,2.1-.2,4.3-.4,6.4-.9,2.2.3,4.3,1,6.7,1.9Z"/>
  <path class="st1" d="M726.8,599c.3,1.6.6,3.3.9,5.3.7,0,2.1.2,3.7.5.1.7,0,1.3-.8,2.2-.6.6-.7.9-.7,1.2-.3.7-.5,1.5-.9,2.5-1.9,1.1-3.7,1.9-5.9,2.9.4-2.3.9-4.3,1.1-6.7-.1-.3,0-.2.3-.2.2-.6.1-1.2,0-2.1.8-2.1,1.5-3.8,2.2-5.5Z"/>
  <path class="st22" d="M599.3,270.5c-4.9-1.2-10-2.6-15.3-4.3,4.9,1.2,10,2.6,15.3,4.3Z"/>
  <path class="st22" d="M561.5,259c-3.9-.8-8.2-1.8-12.5-3.1,4,.8,8.1,1.8,12.5,3.1Z"/>
  <path class="st22" d="M620.5,277.1c-1.3-.2-2.9-.5-4.5-1.2,1.4.1,2.8.5,4.5,1.2Z"/>
  <path class="st8" d="M310.2,329c.2.8,0,1.6-.3,2.7-.1-.7,0-1.7.3-2.7Z"/>
  <path class="st22" d="M637.2,282.6c-.6.1-1.3,0-2.3-.4.6-.1,1.3,0,2.3.4Z"/>
  <path class="st22" d="M631.2,280.6c-.6,0-1.3,0-2.3-.4.6-.1,1.3,0,2.3.4Z"/>
  <path class="st22" d="M646.2,285.6c-.6.1-1.3,0-2.3-.4.6-.1,1.3,0,2.3.4Z"/>
  <path class="st17" d="M730.1,608c0-.1,0-.4.3-.9,0,.1,0,.4-.3.9Z"/>
  <path class="st8" d="M314.9,320.2s.2.2,0,.2c-.1,0,0-.2,0-.2Z"/>
  <path class="st29" d="M726.8,598.6c-.7,2.1-1.4,3.9-2.4,6.2-.2,1-.2,1.4-.2,1.8,0,0-.1-.1-.2-.1-3.1,4.5-6.1,9-9.2,13.8-.8,1.1-1.6,1.8-2.7,2.3.8-2.3,1.6-4.5,3-6.3,9.1-11.3,12.2-24.2,11.8-38.6-.5-16.5,0-33-.1-49.5,0-1.7-.2-3.4-.4-5-3.6,1.1-6.5,2-9.5,2.5-.3-1.2-.4-2-.4-3.2.1-21.4.1-42.4.4-63.7.1-2.1,0-4-.3-6.3,0-4.1.1-7.8.5-11.6,2-2.8,2.9-5.5-.3-8.3,0-1.1,0-1.8.5-2.6,2.4.6,4.3,1.2,6.9,1.9,2.7-7.6,1-15.4,1.4-23.5-.3-10.1-.6-19.8-.9-29.9,0-14.4,0-28.3,0-42.2,0-8.2-4.5-13.6-11.6-16.3-19.4-7.3-39-14.2-58.5-21.3-8.8-3.2-8.7-3.2-14.3,4.6-.8-.1-1.2-.2-1.7-.5-.3,0-.6,0-.9.2,0,0,0,0-.2,0-.2,0-.7-.1-1.1-.2-7.2-2.6-14.1-5.1-20.7-7.9.6-.9,1-1.5,1.4-2.2-.4-.2-.8-.4-1.2-.6-.4.9-.9,1.9-1.7,2.8-5.3-1.4-10.2-2.7-15.3-4.3-.5-.3-.9-.4-1.6-.6-1.5-.4-2.5-.6-3.9-1.1-2.1-.6-3.9-1.1-5.9-1.5-.2,0-.5,0-.6,0,0,0,0,.2-.1-.2-1.6-.7-3.1-1.2-4.8-1.8-.6-.3-1-.4-1.6-.6-.5-.1-.9,0-1.4-.3-.6-.3-1-.4-1.8-.7-1.4-.3-2.5-.5-3.7-.8-.7-.3-1.2-.4-2-.7-.8-.3-1.4-.4-2.2-.7-5-1.3-9.7-2.3-14.8-3.5.2,2.1.4,4,.4,6.3,0,2.1,0,3.9,0,6,0,1.9,0,3.3,0,5.1,0,2.1,0,3.7,0,5.8,0,2.5,0,4.6,0,7.1,0,4.1,0,7.8,0,12-.2,8.8-.3,17.2-.8,25.6-1.3,0-2.1,0-3-.4-.3-5.5-.5-10.6-.7-16.1,0-5.1,0-9.8,0-15,0-6.5,0-12.5,0-19,0-3.5,0-6.5,0-10,.1-2.4.4-4.5.1-6.4-.2-1.3-.9-3.3-1.7-3.5-7.7-1.9-15.4-3.5-23.4-5.4-1-.5-1.7-.8-2.8-1-1.2.3-2,.6-3.3.9-7.8,1.7-15.2,3.4-22.6,4.7-1.8-3.6.1-8.8-5.3-9.9,4.4-1.3,8.7-2.7,13.7-4,.9-.1,1.2-.3,1.5-.5,11.9-5.1,23.6-3,35.7.6,8.6,2.4,16.8,4.8,25.1,7.2,11.6,3.4,23.2,6.9,34.9,10.4,2.2.7,4.5,1.3,7.1,2,1.5.5,2.7.9,4.1,1.3,10.2,3.3,20.2,6.5,30.1,10,23.1,8.2,46.1,16.3,69.1,24.7,12.1,4.4,16.1,10.6,16.1,23.4,0,43.3,0,86.6.1,130.4,0,7.1,0,13.8,0,21,0,5.8,0,11.2,0,17,0,6.8,0,13.2,0,20.5,0,14.6,0,28.4.1,42.1-.1,5.3-.2,10.6-.2,16.3-.6,3.9-1.2,7.4-1.9,11.3Z"/>
  <path class="st22" d="M641.9,288.5c-1.6-.6-3-1.2-4.3-1.7.1-.4.3-.8.4-1.1,1.8.8,3.5,1.5,5.2,2.3,0,0,0,.3-.2.4-.3.1-.6.2-1.2.1Z"/>
  <path class="st29" d="M323.8,611c-1.3-2.5-2.5-4.9-3.9-7.7-1.2-4-2.2-7.8-3.2-12.3-.3-3.5-.5-6.3-.7-9.5,0-17.8,0-35.2,0-52.5.2-5.4.5-10.8,1.2-16.6,1,.7,1.7,1.7,2.1,2.9.4,1.2.5,2.4.7,4.1,0,1.5,0,2.6,0,4.1,0,16.1,0,31.8,0,48,.2,8.4-1.3,16.8.8,24.1,4.1,14.3,13.6,25.9,24.1,36.8,3.7,4.6,7.1,9.2,11.1,13,16.9,16.2,33.7,32.4,51.1,48.1,10.4,9.4,21.8,17.7,32.9,26.9,11.7,8.7,23.3,17.2,35.1,25.9,5.4,3.8,10.6,7.2,16,11,2.8,2.1,5.3,3.9,7.5,5.7-1.1,0-1.9,0-2.6,0-5.2-3.2-10.3-6.4-15.8-9.7-2.7-1.8-5.1-3.5-7.9-5.4-7.1-5-13.9-10-21-15-20-16.3-40-32.1-59.1-48.8-23.2-20.2-45.1-41.9-63.8-66.6-1-1.3-1.9-2.7-3.1-4.6-.7-1-1-1.4-1.4-1.9,0,0,0,0,0,0Z"/>
  <path class="st1" d="M323.8,611.3c.4.1.7.6,1.1,1.3-.3-.1-.7-.6-1.1-1.3Z"/>
  <path class="st31" d="M717.1,526.1c2.9-.9,5.8-1.8,9.4-2.9.1,1.7.4,3.4.4,5,0,16.5-.3,33,.1,49.5.4,14.3-2.8,27.2-11.8,38.6-1.4,1.8-2.2,4-3.3,6.4-.8,1.6-1.7,2.7-3.2,4.1-3.9,3.5-7.2,6.9-10.4,10.3,0,0,.6.6.9,1-2.2,2.5-4.5,5.1-7.3,7.6-4.9-.9-3.6,2.3-3.9,4.4-.5.6-.9,1.2-2,1.9-4.3,2.3-8,4.5-11.1,6.4-2.8-1-5.3-1.8-7.6-3,4.6-5,9.1-9.7,13.8-14.5,8.9-10.3,17.4-20.5,26.2-30.9,3.1-6.4,5.9-12.7,8.9-19.2.3-13.1.4-25.9.6-39.1,0-8.8,0-17.2,0-25.5.1,0,.4,0,.4,0Z"/>
  <path class="st29" d="M648.2,687.8c-7.1,6.4-14.1,12.9-21.4,19.1-7.4,6.3-15.2,12.1-23.5,18,.6-2.1,1.9-4.2,2.9-5.9-2.7-1.5-5-2.8-7.2-4.4.5-.8.8-1.3,1.3-1.8.3-.2.5-.4.9-.9,11.6-9.2,22.8-18.2,34.5-27.2,4.1.2,7.2,4.4,11.4,1.6,0,0,.8.9,1.2,1.4Z"/>
  <path class="st2" d="M648.5,687.7c-.8-.4-1.5-1.4-1.5-1.4-4.1,2.8-7.3-1.4-11.2-1.9,6.6-6.7,13.3-13,20.4-19.5,2.1-1.9,3.8-3.6,5.9-5.5,1.8-1.4,3.3-2.7,4.8-3.9,2.5.9,5,1.7,7.8,2.7,3.1-1.9,6.7-4.1,10.8-6.3-12,11.9-24.3,23.8-37,35.7Z"/>
  <path class="st3" d="M598.8,715c2.4,1.3,4.7,2.6,7.4,4.1-1,1.7-2.2,3.7-3.2,6-.3.7-.9,1.3-2,1.7-1,.5-1.5,1.2-2,1.8-.5.5-1,.9-2.1,1.3-3.5.3-6.9,0-6.3,4.7,0,0-.1,0-.5-.2-1.7.4-3,1-4.6,1.7-1.5,1-2.7,1.9-3.9,2.6-4.2,2.5-8.4,4.9-12.8,7.1-1.5-2.1-2.7-4.1-3.7-6.3,11.4-8.4,22.6-16.5,33.8-24.6Z"/>
  <path class="st29" d="M699.4,638c-.6-.2-1.2-.8-1.2-.9,3.2-3.4,6.5-6.8,10.2-10.2-2.6,3.6-5.6,7.3-9,11Z"/>
  <path class="st29" d="M590.9,734.6c-1-4.6,2.4-4.4,5.7-4.7-1.6,1.6-3.5,3.1-5.7,4.7Z"/>
  <path class="st2" d="M688.2,650c0-2-1.3-5.2,3.2-4.2-.8,1.5-1.8,2.8-3.2,4.2Z"/>
  <path class="st29" d="M585.8,736c1.3-.6,2.6-1.1,4.3-1.5.4.2.4.4.3.4-1,.7-1.9,1.3-3.3,1.8-.7-.3-1-.5-1.3-.7Z"/>
  <path class="st29" d="M599.3,728.5c.2-.6.7-1.2,1.4-1.6-.2.7-.7,1.1-1.4,1.6Z"/>
  <path class="st28" d="M597.3,734.5c0,0,0,0,0,0Z"/>
  <path class="st31" d="M329.9,318.3s.4-.3,1-.2c1.8-.6,2.9-1.2,4.1-1.8.6-.3,1.1-.5,2.4-.7,2.6-.5,4.5-1,6.6-1.3,2.4,1.8,4.7,3.3,6.9,5.2,0,1.1,0,1.9-.2,2.9-5.1,2-10,3.6-14.7,5.7-5.5,2.4-8.3,6.3-8.2,12.8.3,27,0,54,.1,80.9,0,1.8.3,3.6.3,5.9-.1,4.1-.2,7.7-.6,11.3-1.8-3-3.8-5.7-4.6-8.8-.9-3.5-.9-7.1-5.8-7.2,0-14.6-.2-29.1-.3-43.7,0-8.8,0-17.6.5-26.8,3.5-3.6,3.2-6.7-.2-8.5,0-2.3-.1-4.6,0-7.4.3-.4.7-.5,1.1-.6,4-1.1,2-3.2,1.3-5.5,1.4-3.1,2.7-5.8,4.1-8.5,0,0,0,0,.3,0,.4-.3.6-.6.8-.8,1.1-.7,2.1-1.4,3.7-2.1.8-.3,1-.5,1.3-.7Z"/>
  <path class="st2" d="M317,423.4c5-.4,5,3.2,5.9,6.7.8,3.1,2.8,5.9,4.7,9.3.6,5.9.8,11.2.7,17.1,0,10.4,0,20.4.2,30.8-.1,10.8-.2,21.2-.4,31.5-.1,0-.4,0-.8,0-2.8,0-5.1,0-7.5,0-.2-1.2-.3-2.5-.7-3.7-.4-1.1-1.1-2.2-2-3.3-.4-5.7-.5-11.4-.6-17.5,0-4.8,0-9.2,0-14.1,0-17,.2-33.6.3-50.1,0-2.2,0-4.3.2-6.9Z"/>
  <path class="st10" d="M323.6,321.9c-1.1,2.8-2.5,5.5-4.1,8.8-.6,2.2-1,3.7-1.4,5.3,0,0-.4.1-.6,0-1-5.6,1.6-9.9,5.1-14.2.4-.2.6-.1,1,0Z"/>
  <path class="st2" d="M317.1,344.4c3.5,1.4,3.8,4.5.5,7.6-.5-2.4-.6-4.8-.5-7.6Z"/>
  <path class="st2" d="M350.9,322.1c0-.8,0-1.5.3-2.7,15.7-5.7,31.1-10.9,46.3-16.2,7.4-2.6,8.3-4.1,8.3-12,5.8-2.1,11.6-4.1,17.6-6.4,14.2-4.5,28.2-8.7,42.1-12.9,2.4-.7,4.8-1.4,7.9-2,1.2-.2,1.8-.5,2.3-.8.3-.1.7-.3,1.6-.4.8-.1,1.1-.3,1.4-.5.4-.2.7-.3,1.7-.4,1.2-.2,1.7-.4,2.3-.7.4-.1.7-.3,1.6-.4.8-.1,1.1-.3,1.4-.5.6-.2,1.2-.4,2.5-.6.9-.1,1.2-.3,1.5-.5.4-.2.7-.3,1.4-.4,5.8,1.1,3.8,6.4,5.3,10.1-18.1,6.1-35.9,11.6-54.1,17-5.5,1.6-10.6,3.3-16.1,5-21,7.1-41.6,14.1-62.3,21.1-4.3,1.5-8.8,2.7-13.2,4.1Z"/>
  <path class="st29" d="M482.5,267.1c-.2.3-.8.6-1.7.8.2-.3.8-.6,1.7-.8Z"/>
  <path class="st29" d="M475.5,269.1c-.2.3-.8.6-1.6.8.2-.3.8-.6,1.6-.8Z"/>
  <path class="st29" d="M478.5,268.2c0,.3-.3.5-.9.6,0-.2.3-.5.9-.6Z"/>
  <path class="st29" d="M485.5,266.3c0,.2-.3.4-.8.6,0-.2.3-.4.8-.6Z"/>
  <path class="st3" d="M506.5,260.3c0,.2-.3.4-.9.5,0-.2.3-.4.9-.5Z"/>
  <path class="st29" d="M489.5,265.2c0,.3-.3.5-.9.6,0-.3.3-.5.9-.6Z"/>
  <path class="st9" d="M315.6,528.7c.3,17.6.4,35,0,52.9-2.1,1.8-3.9,3.2-5.6,4.5,0-5.1-.1-10.1.3-15.6,1.5-1.6,3.4-2.6,3.4-3.8.3-7.9.1-15.9.1-23.8,0-2.7-1.1-4-3.9-3.8,0-7.4-.1-14.8-.1-22.6,2.5-.7,4.1-.1,4.2,2.9.1,3.1.8,6.1,1.6,9.4Z"/>
  <path class="st15" d="M309.8,539.5c2.8-.7,4,.7,4,3.4,0,7.9.1,15.9-.1,23.8,0,1.1-1.9,2.2-3.3,3.3-.5-10-.5-20-.5-30.5Z"/>
  <path class="st5" d="M309.9,586.5c1.8-1.7,3.5-3.1,5.6-4.4.6,2.7.9,5.4,1,8.6-.6,1.2-1.1,2.1-1.8,2.8-.9.9-2.1,1.7-3.5,2.5-.7-3-1.1-6.1-1.4-9.5Z"/>
  <path class="st8" d="M736,524c1.4,1,3.6,1.7,4.1,3,1,2.9,1.6,6.1,1.6,9.2.2,10.9.2,21.9,0,32.8,0,3.8-.4,7.7-5.6,8.6-.6-2.8-.7-5.2-.7-8.1,0-12.5,0-24.5,0-36.9.2-3.2.4-5.9.5-8.6Z"/>
  <path class="st9" d="M735.9,523.5c0,3.2-.2,5.9-.8,9.1-3.4,1.4-4.5,3.3-4.4,6.4.2,7.6.3,15.3,0,22.9-.2,4,1.1,6.5,4.7,8,.1,2.4.2,4.8.4,7.6,0,1.2-.1,2-.3,3.1-3.4.9-4.9-.6-5.2-3.8-.2-1.8-.5-3.5-1.1-5.6-.3-14-.4-27.7-.3-41.9.7-1.9,1.2-3.4,2-4.8,1.3-2.6,2.7-5.1,4.4-7.7.4,2,.5,4,.7,6.5Z"/>
  <path class="st3" d="M346.9,309.7c-1.3-4.1.2-6.7,4.2-8.1,12.8-4.7,25.5-9.4,38.6-14.3,4.8-1.6,9-1.8,11.2,4.2-1.9,2.1-3.5,4-5.5,4.7-13.9,4.9-27.8,9.7-41.8,14.2-1.9.6-4.4-.4-6.6-.6Z"/>
  <path class="st23" d="M346.6,309.9c2.5,0,4.9,1.1,6.9.4,14-4.5,27.9-9.3,41.8-14.2,2-.7,3.6-2.6,5.6-4.4,1.5-.5,2.9-.6,4.6-.6.3,8-.5,9.5-8,12.1-15.3,5.3-30.6,10.5-46.3,15.8-2.6-1.5-4.9-3-7.3-5.1-.2-.9-.3-1.1-.3-1.3.9-.8,1.9-1.7,3.1-2.7Z"/>
  <path class="st22" d="M590.1,271.9c-.3-.5-.3-1-.3-1.5.7.3,1.4.7,2.1,1-.5.2-1,.4-1.8.5Z"/>
  <path class="st8" d="M585.5,736.1c.6,0,.9.3,1.3.7-1.8,1.9-3.8,3.6-5.9,5.5-6.4,4.5-12.5,8.7-18.9,13.2-3.7,2.4-7.3,4.5-11,6.9-3.3,2.1-6.3,3.9-9.7,5.8-11.4,8-22.7,9.4-34.8,1.7-3.5-2.1-6.6-4.1-10-6.2-.3-.1-.4-.4-.4-.6.7-.2,1.5-.2,3-.1,3.5,1.5,6.3,2.9,9,4.5,9.1,5.5,18.4,6.4,27.8,1,5-2.9,9.9-6.1,14.7-9.3,6.3-4.3,12.4-8.8,18.6-13.2,4.2-2.4,8.4-4.8,12.5-7.3,1.3-.7,2.4-1.6,3.9-2.6Z"/>
  <path class="st10" d="M343.2,312.7c.4.2.4.4.5.9-1.9.9-3.8,1.5-6.1,1.9,1.5-1,3.4-1.9,5.6-2.8Z"/>
  <path class="st10" d="M334.6,316.2c-.8.7-2,1.3-3.5,1.8-.4,0-.4-.5-.3-.8,1.2-.5,2.3-.8,3.8-1.1Z"/>
  <path class="st14" d="M485.3,762.4c0,0,0,0,0,0Z"/>
  <path class="st10" d="M324.6,321.1c.1.3,0,.6-.5.9,0-.3,0-.6.5-.9Z"/>
  <path class="st10" d="M329.6,318.2c0,.3-.2.5-.7.7,0-.3.2-.5.7-.7Z"/>
  <path class="st27" d="M612.3,279.4c0,0,0,0,0,0Z"/>
  <path class="st0" d="M724.6,606.7c-.3-.4-.3-.8-.2-1.5.3.3.4.9.2,1.5Z"/>
  <path class="st13" d="M717.1,430c0,.7-.1,1.5-.2,3,0,3.2,0,5.6,0,8,0,3.7-.1,7.4-.5,11.5-.7.6-1.1.7-1.5.3,0-10.3,0-20.1,0-30.3-.2-12.3-.3-24.2-.5-36.1-8.6,10-18.5,6.9-26.1,6.3-4.4-5.3-7.8-9.3-11.1-13.3-1.3,0-2.6.2-3.7,0,3.5-3.8,7-7.2,10.1-10.8,2.5-2.8,5.2-4.1,9.1-3.7,5.2.4,10.2-4.7,9.9-9.5-.3-5.3-4.9-9-10.3-8.5-5.2.6-8.4,5.1-7.7,10.8.2,1.5.2,3.6-.7,4.5-8.1,8.3-16.5,16.4-24.9,24.1-1.6-1.2-3.1-2.7-4.6-2.8-11.4-.2-22.9.1-34.3-.2-4.7-.1-8,1.3-11.4,4.6-6.6,6.4-13.7,12.3-20.6,18,2.2-3.4,4.4-6.3,6.9-9.7-3.9-.6-7.1-1-10.2-1.8,3.2-4,6.4-7.6,9.4-11.3,4-5,7.9-10.1,12.2-15.3,1.1-1,2-1.9,3.2-2.9,5.1-5.7,9.8-11.4,14.8-17.2,4.4-5.1,8.5-10,12.6-14.9,6.5-7.8,13-15.7,19.9-23.5,16.7,5.9,33,11.6,49.3,17.6,9.5,3.5,10.6,5.5,10.7,15.5.1,11.5.2,23,.2,34.9,0,10.5,0,20.5,0,31,0,7.5,0,14.5,0,21.6M701.3,370.9c5.3-2.2,6.1-5,2.9-9.4-3,2-6,4.1-9.8,6.6,2.5,1.1,4.3,2,6.9,2.8Z"/>
  <path class="st28" d="M716.7,459.1c0,21,0,42-.5,63.3-1-3.1-1.5-6.5-2.1-10.5-5.1,4.2-9.8,7.9-14.5,11.8-4.2,3.5-8.2,7.6-14.8,3.3,0,13.2,0,25.6,0,38.5-.6,4.1-1.2,7.8-1.8,11-.2-6.8-.3-13.1-.2-19.9,0-20.3-.2-40.1.1-59.9,0-2.9,1.6-6.4,3.6-8.7,4.8-5.3,10.2-9.9,15.4-14.8,4.9-4.7,9.9-9.4,14.8-14.1Z"/>
  <path class="st20" d="M605.9,368.1c-4,5-7.9,10.1-11.9,15.1-3,3.7-6.2,7.3-9.7,11.4-5.4,5.7-10.5,11-15.9,16.3-2-.1-3.6-.5-5.1-.2-9,1.9-17.9,4.8-27,5.6-6.7.6-11,2.5-13.5,8.2-.2-1-.2-1.6-.3-2.1,0,0,0,0,0-.5,0-1.2,0-2,0-3.1.1-1.4.2-2.5.6-3.5.7-.8,1.1-1.6,1.7-2.7.4-2.1.7-3.9,1.4-5.8,7.1-1,14-1.3,20.4-3.1,13.6-3.8,27-8.2,36-20.2,3.8-5,9.1-9.6,10.8-15.2,6.8-22.6,3.3-43.4-15.4-59.4-5.9-5.1-12.7-9.6-21.2-10.3-.5-1.4-1-2.5-1.5-3.5,0-1.4-.2-2.9.2-4.8,2.2-.1,4.2-.2,5.7.6,4.4,2.2,8.6,5,13.1,6.9,10.8,4.7,19,12.5,23.7,23,4.7,10.6,8.3,21.8,5.1,34.1-1,4.1-2.4,9.7,2.8,13.1Z"/>
  <path class="st25" d="M554.6,346c0-8.4.2-16.7.7-25.6,2.2-3.8,4.4-4.2,7-1.6,2.7,2.7,5.6,5.2,7.8,8.2,7.9,10.9,9.6,25.5,1.1,37.5-10.9,15.4-26.5,21-44.4,22.1,0-3.5,0-6.6.1-9.9,8.5-8.4,16.9-16.5,25-24.8,1.4-1.4,1.8-3.9,2.7-5.9Z"/>
  <path class="st5" d="M526.8,387c17.8-1.5,33.5-7.1,44.4-22.5,8.5-12,6.9-26.6-1.1-37.5-2.2-3-5.1-5.6-7.8-8.2-2.6-2.6-4.8-2.2-6.9,1.1-.4-3.6-.5-7.3,0-11.5,4.9-2.3,8.7-.2,12.1,2,26.3,17.8,29.3,56.4-1.5,75.9-12.3,7.8-25.7,11.3-40.2,10.1.3-3.5.6-6.5,1-9.6Z"/>
  <path class="st26" d="M525.9,397c14.5.7,27.8-2.7,40.2-10.6,30.8-19.5,27.8-58.1,1.5-75.9-3.4-2.3-7.2-4.4-12-2.5-.4-2.1-.5-4.1-.1-6.7.7-1.1,1.1-1.7,1.4-2.3,8.5.3,15.3,4.9,21.2,10,18.8,16,22.3,36.8,15.4,59.4-1.7,5.7-7,10.2-10.8,15.2-9,12-22.4,16.5-36,20.2-6.5,1.8-13.3,2.1-20.4,3.1-.4,0-.5,0-.5-.4,0-3.5,0-6.5.1-9.5Z"/>
  <path class="st1" d="M656.3,309.4c-6.5,7.8-13,15.7-19.5,23.5-4.1,4.9-8.2,9.8-13,14.9-1.8-1.4-3.6-2.9-3.9-4.6-.7-4.9-.7-9.9-1.2-14.8-.9-9.1-3.3-17.4-10.6-23.8-5.2-4.6-9.6-10.3-14.3-15.5,1.1.2,2.2.5,3.8,1.1.9.5,1.3.5,1.6.6,4.9,1.4,9.8,2.7,15.3,4.2.6.1,1.1.1,1.1.1,6.8,2.5,13.7,5.1,20.9,7.9.7.2,1,.1,1.3,0,0,0,0-.1.2,0,.3.1.7,0,.7,0,.4.1.9.2,1.8.6,5.6,2.1,10.6,3.9,15.7,5.8Z"/>
  <path class="st23" d="M656.7,309.5c-5.4-1.9-10.5-3.7-15.7-5.8,5-8.1,5-8.1,13.7-4.9,19.5,7.1,39.1,13.9,58.5,21.3,7.2,2.7,11.7,8,11.6,16.3,0,13.9,0,27.8-.4,42.2-2.7-.2-5.1-.9-7.5-1.5-.1-11.5-.2-23-.3-34.5,0-10-1.2-12-10.7-15.5-16.2-6-32.6-11.7-49.3-17.6Z"/>
  <path class="st1" d="M684.8,565v-38c6.6,4.3,10.6.2,14.8-3.3,4.7-3.9,9.4-7.6,14.5-11.8.6,3.9,1.1,7.4,2,10.9.5.9.6,1.7.9,2.9.1.4-.1.4-.6.3-1.7.4-3.5.5-3.9,1.4-2.1,4.7-4.1,9.4-5.5,14.3-2.6,9.2-4.5,18.6-7.3,27.7-.6,1.9-3.6,4.1-5.7,4.3-1.6.1-3.5-2.6-5.1-4.2-1.4-1.4-2.7-3-4-4.4Z"/>
  <path class="st15" d="M550.5,330c.3,5.1.5,10.1.6,15.9-7.5,8-14.8,15.3-22.3,22.5-1.8,1.7-4.2,2.8-6.3,4,0-.5,0-.8.1-1.3.6-4.4,1.2-8.5,1.4-12.7.7-16.5,1.4-33.1,2.1-49.6,0-.6.4-1.2,1-1.6,1,2.4,1.2,5.1,2.6,6.7,2.6,2.8,5.9,5,9,7.4,3.9,3,7.9,5.8,11.9,8.8Z"/>
  <path class="st14" d="M593.6,288.9c5,5.4,9.3,11.1,14.5,15.7,7.3,6.5,9.7,14.7,10.6,23.8.5,4.9.5,9.9,1.2,14.8.2,1.7,2.1,3.2,3.6,4.8-4.3,5.7-9.1,11.3-14.5,16.8-.7-2.4-.9-4.7-.6-6.9.6-3.9,2.1-7.7,2.3-11.6,1.2-20.9-9.8-43.8-32.9-52.8-3.1-1.2-5.8-3.3-8.8-4.6-4.5-1.8-9.2-3.3-13.7-4.9-.2-1.9-.4-3.8-.5-5.9,5.1,1.2,9.8,2.2,14.8,3.8,1,.6,1.7.6,2.5.6.5.1,1,.2,1.8.9,2.5,1.3,4.7,1.9,7.1,2.9,2.1.7,4.1,1,6.1,1.3,0,0,0-.2,0,0,.3,0,.6-.1.9-.3,1.8.4,3.6.8,5.7,1.5Z"/>
  <path class="st17" d="M555.2,284.4c4.7,1.2,9.4,2.6,13.9,4.5,3.1,1.3,5.8,3.4,8.8,4.6,23.1,9,34.1,31.9,32.9,52.8-.2,3.9-1.7,7.7-2.3,11.6-.3,2.2,0,4.5.3,7-.5,1.2-1.4,2.1-2.5,3.1-5.5-3.3-4.1-8.9-3.1-13,3.1-12.3-.4-23.5-5.1-34.1-4.7-10.5-12.8-18.2-23.7-23-4.5-2-8.7-4.8-13.1-6.9-1.6-.8-3.5-.7-5.6-1-.4-1.7-.5-3.4-.4-5.6Z"/>
  <path class="st24" d="M522.3,371.3c.1.3.2.5,0,1.5,0,2.8.3,5,.6,7.7,0,9.1,0,17.7,0,26.7,0,2,0,3.6,0,5.4,0,1.1,0,2,0,2.8-.1,1-.2,2.1-.5,3.4-.3-.1-.4-.5-.4-1.3,0-4.4.3-8.4-.2-12.3-.5-4-1.8-7.9-2.7-12.2,0-7.6-.1-14.8-.3-22-.2-11.5-.8-22.9-.6-34.4.4-21.9,1.2-43.8,1.7-66.2.7-.7,1.6-.9,2.7-.9.2,1.4.2,2.5,0,4-.3,1.7-.8,3-.8,4.3-.4,17.6-.9,35.1-1,52.7,0,11.8.6,23.5.9,35.3,0,1.8.3,3.6.4,5.4Z"/>
  <path class="st10" d="M717,458.8c-5.2,4.9-10.2,9.6-15.1,14.3-5.2,4.9-10.6,9.6-15.4,14.8-2,2.2-3.6,5.7-3.6,8.7-.3,19.8,0,39.6-.5,59.8-.8-1.4-1.5-3.1-1.5-4.8,0-11.6,0-23.3-.2-34.9,0-1.6-1.3-3.2-2.1-5.2,0-8,.2-15.6.7-23.3,1.7-1.2,3.2-2.3,4.4-3.5,7.2-7.1,14.3-14.2,21.5-21.3,3.3-3.3,6.5-6.7,9.7-10,.4,0,.8-.2,1.5-.3.5,1.8.7,3.7.6,5.8Z"/>
  <path class="st25" d="M550.5,329.5c-4.1-2.5-8.1-5.3-12-8.3-3.1-2.3-6.4-4.5-9-7.4-1.4-1.5-1.5-4.2-2.6-7-.3-1-.2-1.5.2-1.9,5.7-1.6,10.1.5,14.3,3.2,3.2,2,6,4.5,9.1,6.8,0,4.7.1,9.4,0,14.5Z"/>
  <path class="st5" d="M550.6,314.5c-3.1-1.8-6-4.3-9.2-6.3-4.2-2.7-8.6-4.9-14.4-3.7-.5-2.7-.5-4.9-.4-7.5.2-.6.3-.8.7-1.1,8-3,15.5-1.9,23.1,0,0,6,.1,12,.1,18.5Z"/>
  <path class="st14" d="M525.8,270.4c7.7,1.7,15.5,3.3,23.2,5.3.8.2,1.6,2.2,1.7,3.5.3,2,0,4-.5,6.4-1.9-.1-3.3-1.2-4.8-1.2-6.2,0-12.4.4-18.6.2-.4-5-.7-9.6-1-14.2Z"/>
  <path class="st32" d="M716.9,377.5c2.5.2,4.8.8,7.6,1.5.7,9.7,1,19.4.9,29.5-3,.2-5.7-.2-8.3-.5,0-10-.2-20-.1-30.5Z"/>
  <path class="st20" d="M526.9,285c6.2-.2,12.4-.6,18.6-.6,1.4,0,2.9,1,4.7,1.6.4,3.1.5,6.1.4,9.6-7.7-1.5-15.2-2.6-23.2,0-.4-3.8-.4-7.2-.4-10.5Z"/>
  <path class="st3" d="M522.8,380c-.3-2.2-.5-4.4-.6-7,2.3-1.8,4.7-2.9,6.5-4.7,7.5-7.2,14.8-14.5,22.4-22,1-.3,1.8-.3,3.1-.3-.5,2-.9,4.4-2.3,5.9-8.2,8.3-16.5,16.3-25.3,24.9-1.6,1.4-2.7,2.3-3.8,3.2Z"/>
  <path class="st10" d="M717,408.5c2.7-.1,5.4.2,8.4.5,0,7.6,1.7,15.4-1,23-2.5-.8-4.5-1.3-6.9-1.9-.4-7-.5-14.1-.5-21.6Z"/>
  <path class="st15" d="M526.9,284.5c0,3.8,0,7.2,0,11,0,.7-.1.9-.6,1.3-1.1-4.1-1.8-8.4-2.4-12.7-.5-3.6-.7-7.3-1.1-11,0-1.1,0-2.2.2-3.7.8,0,1.6.2,2.6.7.6,4.7.9,9.3,1.3,14.3Z"/>
  <path class="st10" d="M717.2,440.9c-.4-2.3-.4-4.7-.3-7.5,3.2,2,2.3,4.7.3,7.5Z"/>
  <path class="st17" d="M556.8,298.7c-.3.9-.7,1.5-1.3,2.2-.3-1.6-.4-3.3-.3-5.3.6.7,1.1,1.7,1.6,3.1Z"/>
  <path class="st1" d="M587,287.3c-1.9,0-3.8-.3-6-1-.2-.3-.2-.3.2-.4.7,0,.9-.1,1.2-.2,1.5.4,3,.8,4.6,1.6Z"/>
  <path class="st1" d="M580.8,286c-2.2-.6-4.5-1.3-6.8-2.3,1-.2,2,0,3.6.5,1,.5,1.4.6,1.8.7.3,0,.7,0,1.2.3.2.4.2.9.2.9,0,0,0,0,0,0Z"/>
  <path class="st3" d="M615.9,294.9c-.2.3-.7.3-.9.2.2-1.1.7-2,1.1-2.9.4.2.8.4,1.2.6-.4.6-.8,1.3-1.4,2.2Z"/>
  <path class="st1" d="M571.8,282.3c-.5.2-1.2.2-1.9-.1.5-.2,1.1-.1,1.9.1Z"/>
  <path class="st14" d="M579.2,284.6c-.2.2-.6,0-1.2-.3.2-.2.6,0,1.2.3Z"/>
  <path class="st14" d="M599.1,290.6c-.2.1-.5,0-1.1-.2.2-.1.5,0,1.1.2Z"/>
  <path class="st1" d="M587.7,287.4c0,.2-.4.4-.6.3,0-.3.4-.4.6-.3Z"/>
  <path class="st23" d="M638.7,302.9c0,.2-.4.3-.6.3,0-.2.3-.3.6-.3Z"/>
  <path class="st23" d="M637.7,303c0,.2-.4.3-.7.1,0-.2.5-.2.7-.1Z"/>
  <path class="st14" d="M581.2,285.9c-.4,0-.4-.4-.4-.7.4-.2.8,0,1.4.3,0,.3-.3.3-1,.4Z"/>
  <path class="st23" d="M439.8,720c-11-8.8-22.4-17.2-32.8-26.6-17.4-15.6-34.2-31.9-51.1-48.1-4-3.9-7.4-8.4-10.8-13.2,2.1-2.1,4-3.7,6.1-5.2,1.3,1,2.3,1.8,3.5,2.9,18,17.8,35.5,35.7,53.8,52.7,12.3,11.4,25.8,21.5,38.4,32.3-2.6,1.8-4.8,3.5-7,5.1Z"/>
  <path class="st32" d="M568.7,745.9c-5.9,4.6-12,9.1-18.3,13.3-4.8,3.3-9.7,6.4-14.7,9.3-9.4,5.4-18.7,4.4-27.8-1-2.7-1.6-5.5-3-8.7-4.5-2.9-1.9-5.5-3.7-8.2-6.1,2.9-1.7,5.9-2.9,9.3-4,4.4,2,8.4,4.1,12.6,6.5,2.1,1.1,4,2,6,3.1,1.4.4,2.5.6,4.1.7,2.9-.9,5.6-1.4,7.8-2.7,11.4-6.8,22.6-13.7,33.9-20.7,1.2,1.9,2.4,3.9,3.9,6Z"/>
  <path class="st30" d="M350.9,626.8c-1.9,1.6-3.7,3.3-5.9,5-10.7-10.4-20.2-22-24.3-36.3-2.1-7.4-.7-15.7-.5-24.1,5.5,0,6.1-4.5,8.2-7,.1,4.1.4,7.8.1,11.4-1.4,15.1,4.1,27.7,13.4,39.1,3.1,3.8,6,7.9,8.9,11.9Z"/>
  <path class="st10" d="M500.1,752.9c-3,1.1-6.1,2.2-9.2,3.7-5.3-3.1-10.5-6.6-15.6-10.5,1.9-2.6,3.7-4.7,5.8-6.8,3.3,2,6.2,4,10,6.5,0-13.3.2-25.4-.2-37.6,0-2.8-1.5-6.1-3.4-8.1-6.7-7.3-13.9-14.3-21-21.3-1-1-2.4-1.5-3.6-2.5,1.6-1.3,3.2-2.3,4.8-3,8.3,8.6,16.6,16.8,24.5,25.3,1.8,1.9,3.1,5.1,3.2,7.7.3,11.8.2,23.7,0,35.5,0,4.5.3,8.5,4.6,11.1Z"/>
  <path class="st32" d="M480.8,739.2c-1.8,2.2-3.6,4.3-5.7,6.6-11.9-8.3-23.4-16.8-35.2-25.5,2.1-2,4.3-3.7,7.2-5.3,2,1.2,3.3,2.4,4.7,3.4,9.6,6.9,19.3,13.8,28.9,20.8Z"/>
  <path class="st32" d="M328.3,564c-2,2.9-2.6,7.4-8.1,7-.4-15.7-.4-31.4,0-47.5,2.9.9,5.5,2.2,8.2,3.9,0,12.5,0,24.5,0,36.5Z"/>
  <path class="st10" d="M328.3,527c-2.6-1.3-5.2-2.6-8.1-3.9-.4-1.1-.4-2.2-.4-3.7,2.4-.4,4.7-.4,7.5-.1.5.8.5,1.3.5,2,.1.6.2,1,.4,1.8.1,1.6,0,2.7,0,3.9Z"/>
  <path class="st14" d="M684.8,565.4c1.3,1,2.6,2.6,4,4,1.6,1.6,3.5,4.3,5.1,4.2,2.1-.2,5.1-2.3,5.7-4.3,2.8-9.1,4.7-18.5,7.3-27.7,1.4-4.9,3.4-9.6,5.5-14.3.4-.8,2.2-1,3.8-1.5.4,8.4.5,16.7,0,25.4-1-3.7-1.5-7.8-2.1-11.9-.6.3-1,.3-1.2.5-.3.4-.7.8-.7,1.3-1.9,13.1-4.8,26.2-2,39.6.8,3.8-.8,9.2,5.5,10.2-2.8,6.2-5.6,12.5-9,18.8-1.5-.7-2.2-1.9-3.2-2.1-7.6-1.8-14.3-5.4-20.8-10.1,0-7.2.1-13.9.2-20.6.6-3.7,1.2-7.3,1.7-11.5Z"/>
  <path class="st17" d="M682.9,598c6.4,4.3,13.2,7.8,20.7,9.7,1,.2,1.7,1.5,2.9,2.3-8.2,10.3-16.8,20.5-25.9,30.8-.5-1.6-.3-3.3-.1-5-.3.3-.6.6-.9,1-6-5.7-11.9-11.4-17.7-17.3,7.1-7.3,14.1-14.4,21.1-21.4Z"/>
  <path class="st20" d="M661.7,619.7c6,5.7,11.9,11.4,17.9,17,.3-.3.6-.6.9-1-.2,1.7-.3,3.4-.2,5.1-4.1,4.7-8.6,9.4-13.2,14.4-1.7,1.6-3.2,2.8-5,3.9-1.1-.8-1.8-1.6-2.6-1.9-1.5-.5-3.3-.2-4.5-.9-6.6-3.7-13.2-7.5-19.7-11.7,1.5-1.9,2.9-3.5,4.6-5.2,1.4-1.4,2.6-2.6,3.9-3.9.5-.3.8-.5,1.4-.6,5.7-5.1,11.1-10.2,16.6-15.3Z"/>
  <path class="st20" d="M716,590.6c-6.5-.6-4.9-6-5.7-9.8-2.9-13.3,0-26.4,2-39.6,0-.5.4-.9.7-1.3.2-.2.5-.2,1.2-.5.5,4.2,1.1,8.2,1.9,12.4.3,12.9.2,25.7-.1,38.8Z"/>
  <path class="st4" d="M565,739.6c-11.5,7.2-22.7,14.2-34.1,20.9-2.2,1.3-4.9,1.8-7.8,2.2-.7-8-.8-15.5-1.4-23-.2-2-1.7-3.9-2.6-6.3,0-12.7,0-25,.5-37.3,1-2.4,1.9-4.6,2.2-6.9.6-4.6.8-9.2,1.3-14.8,1.7,2.2,2.5,3.3,3.4,4.9.1,2.7.2,5,0,7.5,0,1.8,0,3.4.3,5.4.1.7.2,1,.3,1.4,0,.2,0,.6,0,.6,0,0-.2.2-.3.2-.1,0-.3.3-.3.3,0,0,.3.2.3.5-1.9,3.2-6.7,4.7-4.3,9.7,1.5-.7,2.8-1.3,4.3-1.6.5,1.4.6,2.7.7,4.3-.3,2.2-.7,4-.7,5.8,0,12.1,0,24.3,0,36.4v7.6c11-7.1,21.2-13.5,31.2-20.2,5.5-3.7,10.6-7.8,16.3-11.8,7.4-5.4,14.4-10.7,21.9-16,1.9-.9,3.4-1.7,4.9-2.1-.4,1.9-.8,3.5-1.1,5.2,0,.2.2.6.2.6-.3.5-.7,1-1.2,1.8-11.3,8.4-22.6,16.5-33.9,24.8Z"/>
  <path class="st15" d="M599.8,712.2c.4-1.5.8-3.1,1.4-5.2,1.4-1.7,2.5-3,3.7-4,11.6-9.7,23.3-19.3,35.2-29.1,4-3.2,7.9-6,11.4-9.3,2.1-1.9,3.1-.8,4.4.6-6.8,6.3-13.6,12.7-20.6,19.3-11.5,9.3-22.8,18.3-34.6,27.4-.7.2-.9.2-1,.2Z"/>
  <path class="st3" d="M599.9,712.4c.1-.2.3-.3.7-.2.2.3,0,.5-.3.7-.2,0-.3-.3-.3-.5Z"/>
  <path class="st5" d="M656.2,665c-1.6-1.3-2.6-2.4-4.7-.4-3.5,3.3-7.4,6.1-11.8,9.2-3.3-1.3-6-2.8-8.7-4.2-1.3-.7-3.2-.7-4.1-1.7-4.8-5-10.7-5.3-17-5.1-1,0-2.1-1.4-2.7-2.2,1.1,0,1.8-.2,2.5,0,6.3,1,11.5,0,15.5-6,2.5-3.7,6.6-6.4,10-9.5,6.6,3.8,13.1,7.7,19.7,11.3,1.3.7,3.1.4,4.5.9.9.3,1.6,1.1,2.3,2-1.8,2.1-3.5,3.8-5.6,5.7Z"/>
  <path class="st2" d="M318.4,336c0-1.5.4-3.1,1-4.9,1,1.7,3,3.8-1,4.9Z"/>
  <path class="st24" d="M328.1,518.8c.2.5.3,1,.1,1.9-.2.4-.5.4-.5.4,0-.5,0-1,0-1.8,0-.4.2-.4.4-.4Z"/>
  <path class="st15" d="M735.5,569.5c-3.7-1-5-3.5-4.8-7.6.4-7.6.2-15.3,0-22.9,0-3.2,1-5.1,4.3-6,.4,12,.5,24,.5,36.4Z"/>
  <path class="st21" d="M424.7,383.1c6.1-.7,10,2.8,14.1,6.7,23.2,22.2,46.5,44.2,69.8,66.2,1.6,1.5,3.3,2.7,5.4,4.4,2.8,2.8,5.3,5.3,8,8,.9-.1,1.7-.5,2.4-.9,0,0,0,0,.3-.2,9.1-8.5,17.9-16.9,27-25.4,8.2-7.8,16.2-15.4,24.4-23.2,1-1.1,1.6-2,2.5-3,.1,0,.3-.3.6-.5,1.5-1.5,2.9-2.9,4.5-4.3,1.7-1.6,3.1-3.1,4.5-4.6,6.9-6.1,14-12,20.6-18.4,3.4-3.3,6.7-4.7,11.4-4.6,11.4.3,22.9,0,34.3.2,1.5,0,3,1.5,4.5,3.1,0,2.6,0,4.4,0,6.7,0,10.8.2,21.1,0,31.4,0,2.3-1.1,5.2-2.7,6.8-5.6,5.9-11.5,11.3-17.6,17.1-10.4,9.7-20.6,19.3-31,29-5.6,5-10.9,9.8-16,14.7-7.6,7.1-15,14.4-22.7,21.8-2.3,2.1-4.4,3.9-6.4,5.8-8.8,8.2-17.7,16.4-26.8,24.8-4.7,4.1-9,8-13.4,11.6-15.4-14.7-30.8-29.2-46.3-43.9-1.6-1.4-3-2.6-4.7-4-2-1.8-3.8-3.3-5.7-5.1-6-6-11.9-11.6-18.4-17.8,0,13.6,0,25.8,0,38.5,0,15.3.2,30.1.2,45.3-.1,22.2-.2,44-.5,65.7-6.3-4.8-12.1-9.5-18.1-14.1-13.6-10.6-27.1-21.2-40.7-31.7-.3-2.1-1-4.2-1-6.2,0-33.4,0-66.7,0-101,0-19.9,0-39,.2-58.3.3-8.5.3-16.6.5-24.7.1-5.3.4-10.6,1-15.8,1,0,1.7,0,2.7.2,4.1,0,7.9,0,12.2-.1,7.5,0,14.4,0,21.4,0Z"/>
  <path class="st0" d="M607.6,477.6c10.1-9.5,20.3-19.1,30.9-28.5,1.7-.4,3.1-.6,4-1.4,2.6-2.1,4.2-5.3,8.7-4.3,1.8.4,5.3-1.1,4.3-5.2-.3-1.2,1-2.8,1.6-4.1,1.2-2.5,2.4-4.9,3.7-7.3.5-.9,1-1.8,1.8-3.1.9,1,1.6,1.5,1.9,2.2,3.1,6.5,10,8.8,17.2,7.3,6.7-1.4,13.7-1.2,20.5-1.4,2.7,0,4.3-.3,5.8-3.2,1.2-2.4,4.4-3.8,6.7-5.6,0,9.8,0,19.6,0,29.9-3.2,3.8-6.4,7.2-9.7,10.5-7.1,7.1-14.3,14.2-21.5,21.3-1.3,1.3-2.7,2.3-4.5,3.1-1.3-1.6-1.9-3.5-3.1-4-4.4-2-7.9-4.6-10.2-8.9-.7-1.3-2.6-2.1-5.1-4,0,14.7,0,27.9,0,41.6,0,6.4,0,12.4-.1,18.3,0,1.4-1,2.7-1.7,3.6,0-10.5,0-20.5.2-30.8,0-3.1,0-5.9-.3-9.1,0-7.2,0-13.9-.1-20.6,0-1.6-.9-3.2-1.5-4.9-.4.2-.5.4-.5,1.1-6.3,6.2-12.6,12-19.2,17.5-.6-5.7-3.5-7.7-8.9-8-2.5-.1-5.1-2-7.1-3.7-3.4-2.8-6.2-4.1-9.6,0-.8,1-2.9,1-4.4,1.5Z"/>
  <path class="st27" d="M714.8,422.5c-2.3,2.3-5.5,3.7-6.7,6.1-1.5,2.9-3.1,3.1-5.8,3.2-6.9.2-13.9,0-20.5,1.4-7.2,1.5-14.1-.8-17.2-7.3-.3-.7-1-1.2-1.9-2.2-.8,1.3-1.3,2.2-1.8,3.1-1.2,2.4-2.5,4.9-3.7,7.3-.7,1.4-1.9,3-1.6,4.1,1,4.1-2.5,5.6-4.3,5.2-4.6-1.1-6.1,2.2-8.7,4.3-1,.8-2.4,1-3.7,1.2,5.6-5.9,11.6-11.3,17.2-17.2,1.6-1.7,2.6-4.5,2.7-6.8.3-10.3,0-20.6.4-31.6,4.9-4.9,9.5-9.2,14.1-13.6,1.3,0,2.6-.2,3.9-.3,3.4,4,6.7,8,11.1,13.3,7.6.6,17.6,3.6,26.1-6.3.2,11.9.4,23.7.5,36.1Z"/>
  <path class="st22" d="M587.9,406.1c-1.4,1.9-2.8,3.4-4.9,4.9-3.3.4-5.8.9-4.3,4.5,0,0-.2.3-.6.1-3.2-.2-4,.9-2.4,3.4-7.9,7.7-15.9,15.3-24.5,23-2.9-1.6-5.1-3.3-7.2-5.2,3-3.1,5.9-6,8.9-9.1,5.4-5.8,10.6-11.2,15.8-16.7,5-5.3,10.1-10.6,15.4-16,3.5.4,6.7.9,10.6,1.4-2.5,3.3-4.7,6.3-6.9,9.7Z"/>
  <path class="st32" d="M673.3,379.4c-4.7,4.6-9.3,8.9-14.2,13.4-.3-1.6-.2-3.4-.2-5.6,8.3-8.5,16.7-16.6,24.9-24.9.9-.9.8-3,.7-4.5-.6-5.7,2.5-10.3,7.7-10.8,5.4-.6,10,3.2,10.3,8.5.2,4.8-4.7,9.9-9.9,9.5-3.9-.3-6.6.9-9.1,3.7-3.2,3.6-6.6,7-10.1,10.8Z"/>
  <path class="st27" d="M700.9,370.9c-2.2-.8-4.1-1.7-6.6-2.8,3.8-2.5,6.8-4.6,9.8-6.6,3.3,4.4,2.4,7.2-3.3,9.4Z"/>
  <path class="st29" d="M661.9,619.4c-5.5,5.4-10.9,10.5-16.8,15.2-1.2-.9-1.9-1.5-2.6-2.4,4.9-4.9,9.6-9.6,14.6-14.2.8-.7,1.2-1.3,1.9-2.2,1.8-1.8,3.4-3.2,5.3-4.7,1.1-1,1.8-1.9,2.7-3.1,2.7-2.9,5.2-5.6,7.9-8,2.7-2.5,3.8-5.3,3.1-9.3,0-5.8,0-11.2,0-17,0-14.5,0-28.6.2-43,.3-6.5.4-12.5.5-18.5.7,1.6,2,3.2,2,4.8.2,11.6,0,23.3.2,34.9,0,1.7.6,3.4,1.4,5.2.5,6.4.6,12.8.7,19.6,0,7.2,0,13.9-.1,21.1-6.9,7.5-13.9,14.6-21,21.9Z"/>
  <path class="st14" d="M568.4,410.9c-4.9,5.5-10.1,11-15.9,16.8-10.3,1.3-19.9,2.3-29.6,3.3,0-1.7-.1-3.4-.1-5.6,2.5-6.6,6.8-8.5,13.5-9.1,9.1-.8,18-3.7,27-5.6,1.5-.3,3.2,0,5.1.2Z"/>
  <path class="st5" d="M522.9,412.3c0-1.6-.1-3.1.3-5.1,1.1-.4,1.8-.4,2.6-.4,0,0,0,0,0,0-.2,1.8-.5,3.6-1.2,5.6-.8,0-1.3-.1-1.7-.3Z"/>
  <path class="st15" d="M522.8,412.6c.5-.1,1,0,1.7.3-.2.9-.6,1.7-1.3,2.5-.3-.9-.4-1.7-.4-2.8Z"/>
  <path class="st24" d="M522.5,422.5s-.1,0,0,0c0,0,.1,0,0,0Z"/>
  <path class="st15" d="M525.7,406.5c-.7.4-1.4.4-2.5.4-.4-8.7-.5-17.3-.5-26.4,1.2-1.4,2.3-2.3,3.7-3.4.3,2.9.3,6,.3,9.5-.3,3.5-.6,6.6-1,10,0,3.4,0,6.5-.1,9.9Z"/>
  <path class="st3" d="M522.7,273.6c.4,3.3.7,6.9,1.2,10.6.6,4.3,1.3,8.6,2.3,13,.4,2.4.4,4.7.5,7.3,0,.9,0,1.3,0,2.1-.2.9-.6,1.5-.7,2.1-.7,16.5-1.3,33.1-2.1,49.6-.2,4.1-.7,8.2-1.4,12.7-.4-1.5-.6-3.3-.6-5.1-.4-11.8-1-23.5-.9-35.3,0-17.6.6-35.1,1-52.7,0-1.3.5-2.6.8-4.3Z"/>
  <path class="st28" d="M678.6,511.5c0,6.5-.1,12.5-.8,19-1-1.1-1.9-2.7-2-4.2-.2-4.3,0-8.6,0-11.6-4.5-.8-7.6-1.4-10.6-1.9-1.4-.3-2.9-.5-4.3-.7v-41.1c2.6,2,4.4,2.7,5.1,4,2.3,4.4,5.9,7,10.2,8.9,1.2.6,1.8,2.4,2.7,4.1-.1,8-.2,15.6-.3,23.6Z"/>
  <path class="st13" d="M354.6,629.9c2.1-2.8,4.2-5.4,6.8-7.8,7.7.7,8.7,5.8,8.2,11.4-.2,2.3-1.6,4.6-2.5,6.8.5-.5.9-.9,1.4-1.4,3.8,4.2,7.6,8.5,11.5,12.9,1.8-4.5,4.1-8.6,10-5.6,2.7,1.3,5.7,2.5,7.7,4.5,7.3,7.5,16.6,9.8,26.5,10.1,8.5.3,16.5,1.6,23.9,6.8.5-1.1.9-2.1,1.3-3.1,2.8-7.3,10.9-9.8,17-5.2.8.6.7,2.4.7,3.5-4-4-8.4-3.8-12.5-1.6-4.7,2.5-4.6,7-3.8,11.6-1.5.6-2.5,1.2-3.6,1.8,1,1.5,2.1,2.9,3.3,4.7,1.6-1.7,2.5-2.8,3.9-3.7,3.1.4,5.8.7,8.5.9,1.2.7,2.7,1.2,3.7,2.2,7.1,7,14.3,14,21,21.3,1.9,2.1,3.3,5.4,3.4,8.1.4,12.1.2,24.2.2,37.6-3.8-2.5-6.7-4.4-10-6.5-10-7-19.6-13.9-29.3-20.8-1.4-1-2.7-2.3-4.4-3.5-13.2-10.8-26.7-20.9-39-32.3-18.3-17-35.9-34.9-53.8-52.7Z"/>
  <path class="st27" d="M467.5,663.1c-.3-1.2-.2-3-1-3.6-6-4.7-14.2-2.1-17,5.2-.4,1-.9,2-1.3,3.1-7.4-5.2-15.4-6.6-23.9-6.8-9.9-.3-19.1-2.7-26.5-10.1-2-2.1-5-3.2-7.7-4.5-5.9-3-8.2,1.1-10,5.6-3.9-4.4-7.7-8.7-11.5-12.9-.5.5-.9.9-1.4,1.4.9-2.3,2.3-4.5,2.5-6.8.5-5.7-.5-10.7-7.9-11.6,8.4-10.9,16.9-21.5,25.7-32.4,13.8,10.2,27.4,20.8,41,31.4,5.9,4.6,11.8,9.4,18.1,14.3.4.3.4.6.3,1-1.9,4.4-.3,6,3.8,5.7,1.8-.1,3.6-.6,5.4-.5,5.7.4,12.3-.6,16.8,2,7,4.1,13.7,6.5,21.7,6.7,5.3,0,10.5,1.2,12.3,8.2,1.1,4.2,4.7,7.7,7.4,11.3.7.9,2.7.8,4.1,1.6.3,8.6.6,16.7.8,24.7,0,12.3-.1,24.5-.3,37.7-.1,8.3-.2,15.8-.6,23.2-2.1.7-3.8,1.4-5.6,2.1-4-2.1-8-4.2-12.4-6.2-4.7-2.5-5-6.5-4.9-11,.2-11.8.3-23.7,0-35.5,0-2.6-1.4-5.8-3.2-7.7-7.9-8.5-16.2-16.7-24.2-25.6,0-3.7-.3-6.8-.5-9.9Z"/>
  <path class="st23" d="M518.7,757c0-7.4.1-14.8.3-22.7,1,1.5,2.5,3.4,2.7,5.4.6,7.5.7,15,1,23-1.2.3-2.3.1-3.7-.7-.2-2.1-.3-3.6-.4-5Z"/>
  <path class="st22" d="M518.3,757c.5,1.4.5,2.9.6,4.8-1.9-.4-3.8-1.3-5.9-2.5,1.5-1,3.2-1.6,5.3-2.3Z"/>
  <path class="st32" d="M467.2,663c.5,3.3.8,6.3.7,9.7-1.8,1.3-3.4,2.3-5,3.6-2.8,0-5.5-.2-8.7-.8-1.3-1.1-2.2-1.8-3-2.6-1.2-4.5-1.2-9.1,3.4-11.6,4.1-2.2,8.6-2.3,12.5,1.6Z"/>
  <path class="st30" d="M327.8,521.3c0-.2.2-.2.3-.2.2.4.2.8.1,1.4-.3-.2-.4-.5-.5-1.2Z"/>
  <path class="st2" d="M635.2,644.7c-3.4,3.5-7.6,6.1-10.1,9.9-4,6-9.1,7-15.5,6-.6-.1-1.3,0-2.9,0-12.2,0-23.5,0-34.8,0-1.9,0-4.3.3-5.5,1.5-9,8.8-17.8,17.8-27,26.9-4.5,4.8-8.7,9.3-12.9,13.9-1.3.6-2.6,1.2-4.1,1.9-2.4-4.9,2.4-6.5,4.3-9.8,0-.5.1-.7.1-.7,0,0,.1-.1.3-.3.4-.3.5-.4.8-.8,1.8-1.2,3.3-2.2,4.6-3.5,6.1-5.9,12.1-11.9,18.4-17.8,1.1-1,1.9-2,2.7-3,0,0,0,0,.3,0,2.1-2,3.9-4,5.8-6.3,1-1.1,1.9-1.9,3.2-2.7.8-.7,1.2-1.4,1.9-2.4,1.9-.7,3.7-1.3,5.4-1.4,14.6,0,29.2,0,43.8-.1,1.6,0,3.6,0,4.7-1,3.5-3.1,6.7-6.7,10.2-10.1.2,0,.6,0,1-.1,1.1-1,1.9-2,2.8-3,0,0,0,0,.3,0,.8-.7,1.3-1.3,1.7-1.9,0,0,0,0,.3,0,.6-.5,1-.9,1.3-1.4,0,0,0,0,.4,0,.9.2,1.5.3,2.2.5.2.2.6.5.6.5-1.4,1.6-2.9,3.2-4.3,5.1Z"/>
  <path class="st2" d="M643.5,635.7c-1.2,1.2-2.3,2.4-3.7,3.8-.3.2-.6-.1-.8-.7-.2-1.3-.2-2,0-3,.4-.4.6-.6,1.3-.8,1.1,0,1.9,0,2.8.2.2.2.5.5.5.5Z"/>
  <path class="st2" d="M642.4,632.5c.8.6,1.5,1.2,2.4,2.1-.2.5-.5.7-1,1-.2.1-.6-.2-.8-.8-.3-1.1-.4-1.6-.6-2.2,0,0,0-.1,0-.1Z"/>
  <path class="st25" d="M539.7,688.9c8.9-8.9,17.7-18,26.7-26.7,1.2-1.2,3.6-1.5,5.5-1.5,11.3-.1,22.6,0,34.4,0,1.5.8,2.6,2.2,3.6,2.2,6.3-.2,12.2,0,17,5.1.9,1,2.8,1,4.1,1.7,2.7,1.4,5.4,2.8,8.4,4.3-11.3,9.7-22.9,19.3-34.6,29-1.2,1-2.3,2.3-3.7,3.6-1.7,1-3.2,1.8-5.1,2.3.3-1.9,1-3.5,1.6-5-6.9-1.7-13.3-3.1-19.6-4.9-5.2-1.5-10.2-3.5-15.4-5.1-5.9-1.8-12-3.4-18-4.8-1.6-.4-3.4-.1-5-.2Z"/>
  <path class="st18" d="M539.5,689c2-.1,3.7-.4,5.3,0,6,1.5,12,3.1,18,4.8,5.2,1.5,10.2,3.6,15.4,5.1,6.3,1.8,12.7,3.2,19.6,4.9-.6,1.5-1.3,3.1-2,5-7.1,5.7-14.1,10.9-21.6,15.9-1.7-1.6-2.7-3.5-4.3-4.2-3.8-1.5-7.9-2.3-11.7-3.7-6.7-2.5-13.6-4.9-19.9-8.3-3.7-2-6.8-3.1-10.7-1.6-.2-1.2-.3-2.4-.8-3.9,3.9-4.8,8.1-9.4,12.6-14.1Z"/>
  <path class="st9" d="M527.6,707.4c3.9-1.8,7.1-.7,10.7,1.2,6.3,3.4,13.2,5.7,19.9,8.3,3.8,1.4,7.9,2.2,11.7,3.7,1.6.6,2.6,2.6,4,4.3-5.2,4.3-10.4,8.4-15.9,12.1-10,6.7-20.2,13.1-31.2,20.2v-7.6c0-12.1,0-24.3,0-36.4,0-1.8.4-3.6.7-5.8Z"/>
  <path class="st25" d="M550.7,671.9c-6,5.9-12,11.9-18.1,17.8-1.3,1.2-2.8,2.3-4.7,3.4-.5,0-.8,0-.8,0,0-.3-.1-.5,0-1.4,0-2.2-.2-3.8-.4-5.5,0-2.3,0-4.5-.1-7.7-.3-10.8-.5-20.6-1.1-30.5,0-1.5-1.6-2.9-2.4-4.7-.1-1.7-.3-3-.4-4.8-.1-8.5-.2-16.6-.2-25.1.1-1.4.2-2.5.6-3.5,1.2,1.2,2.4,2.2,2.6,3.4.6,5.2.8,10.4,1.1,16,0,5.7,0,10.9,0,16.3,7.7,0,13.3,2.5,18,7.5,1.2,1.3,3.5,1.7,5.3,2.3,4.1,1.4,7,3.7,6.6,8.9-1.1,1.7-2.1,3.1-3.1,4.4,0,0,.1,0-.2.1-1.2,1-2,2-2.8,2.9Z"/>
  <path class="st23" d="M523.1,643.8c.8,1.4,2.3,2.9,2.4,4.3.5,9.9.7,19.7.9,30-.9-.7-1.7-1.7-3.4-4-.5,5.7-.7,10.3-1.3,14.8-.3,2.3-1.2,4.6-2.2,6.9-.6-8-.9-16.1-1.1-25.1.9-8.9,1.9-16.9,3.1-25,.7-.7,1.1-1.4,1.5-2Z"/>
  <path class="st23" d="M526.4,686.6c.4,1.4.6,3,.5,4.8-.4-1.4-.6-3-.5-4.8Z"/>
  <path class="st23" d="M526.8,694.3c.1,0,0,.2,0,.4,0,.1-.4,0-.4,0,0,0,.1-.3.3-.3Z"/>
  <path class="st23" d="M527.1,693.4c0-.2.3-.2.5-.2.1.3,0,.5-.3.7-.1,0-.2-.3-.2-.5Z"/>
  <path class="st1" d="M522.8,431.5c9.7-1.5,19.4-2.5,29.5-3.5-2.4,2.8-5.3,5.7-8.6,8.9-7.4,5.7-14.3,10.9-21.2,16.2,0-7,.1-14.1.3-21.6Z"/>
  <path class="st0" d="M522.6,453.1c6.9-5.3,13.8-10.6,21-15.9,2.5,1.5,4.7,3.2,7.4,4.9-8.4,8.4-17.2,16.7-26.4,24.8-.9-4.7-1.4-9.2-1.8-13.6,0,0,0-.1,0-.2Z"/>
  <path class="st1" d="M522.3,453.5c.8,4.3,1.3,8.7,1.9,13.6.1.5.1.4-.2.3-1,.2-1.6.5-2.2.8-2.5-2.4-5-4.9-7.5-7.7,2.6-2.5,5.2-4.7,8.1-7Z"/>
  <path class="st0" d="M447.2,569c-.1-14.8-.3-29.6-.2-44.8.2-.4.5-.4.9-.3.9,1.7,1.8,3.3,1.9,4.9.2,7.1,0,14.2,0,19.3,6.6,4.6,12,8.3,17.2,11.8,1.6-1.7,2.7-2.8,3.8-3.5.1,12.2,0,24,.2,35.8,0,1.6.1,3.5,1,4.6,2.6,3.2,5.6,6,8.5,8.9,9.1,8.9,18.3,17.7,27.4,27,.1,1.5.3,2.6.5,3.8-2.7-.6-5.1-1.2-7.5-1.7-8.2-1.7-8.6-2.4-9.5-11.1,0-.9-2.2-2.5-3.2-2.4-8.5,1.1-16.4.2-23.8-4.4-3.1-1.9-6.7-3-10.4-.8-1.2.7-2.9.5-4.3.3,0-14.6,0-28.7,0-42.8,0-1.9,1-4.7-2.6-4.7Z"/>
  <path class="st1" d="M535.6,544.6c8.8-8.2,17.6-16.4,26.5-24.6,2-1.9,4.2-3.7,6.8-5.8,3.7-2.8,7-5.2,10-7.9,2.7-2.5,4.7-3.6,8.5-1.2,5.6,3.6,11.1,8.5,20.1,5.7-2.3,3.9-4,6.7-5.7,9.8-2.7,2.5-3.2,5.3-3.2,8.6.1,12.6,0,25.1-.5,37.7-4.4-2.6-1.9-6.6-2.2-9.9-.4-3.3.1-6.2-4.9-4.5-1.8.6-4.2-.5-6.2-1.1-11.7-3.5-23.7-6.4-35.1-10.7-4.9-1.9-7.1-.4-10,2.7-.8.9-2.7.8-4.1,1.2Z"/>
  <path class="st14" d="M535.3,544.8c1.7-.5,3.6-.5,4.4-1.4,2.9-3,5.1-4.5,10-2.7,11.4,4.3,23.3,7.3,35.1,10.7,2,.6,4.5,1.7,6.2,1.1,5-1.7,4.5,1.2,4.9,4.5.4,3.3-2.2,7.2,2.3,10.3.4,7.8.4,15.2,0,22.6-1.1-1.3-2.2-2.5-2.3-3.9-.3-2.9,0-5.8,0-8.2-4.5-1.5-8-3-11.7-3.8-9-2-18-3.8-27.1-5.4-10.2-1.9-20.3-6.2-30.8-.7-.9.5-2.3.1-3.5-.3-.3-3.9-.6-7.4-.9-10.8,4.4-3.9,8.7-7.9,13.4-12Z"/>
  <path class="st1" d="M521.9,556.4c.3,3.8.6,7.3.9,11.6,0,2.3,0,3.7-.5,5-1.2-.1-2.2,0-2.8-.3-12.8-6.9-25.6-13.7-38.3-20.9-2.2-1.3-3.7-3.8-5.5-6.3,0-11.2,0-22,0-32.7,15.4,14.4,30.7,28.8,46.1,43.6Z"/>
  <path class="st28" d="M601.9,520.2c1.6-2.8,3.3-5.6,5.6-9.5-8.9,2.8-14.4-2.1-20.1-5.7-3.8-2.4-5.8-1.3-8.5,1.2-3,2.7-6.3,5.1-9.8,7.7,7.1-7.2,14.6-14.4,22.1-21.6,5.2-4.9,10.5-9.7,16-14.7,1.8-.6,3.9-.6,4.7-1.6,3.4-4,6.2-2.8,9.6,0,2,1.7,4.7,3.5,7.1,3.7,5.3.3,8.3,2.3,8.7,8.3-10.3,10.1-20.6,19.7-31.1,29.2-1.3,1.2-3,2-4.5,2.9Z"/>
  <path class="st28" d="M470.7,556c-1.1,1.1-2.1,2.2-3.7,3.9-5.1-3.5-10.5-7.2-17.2-11.8,0-5.1,0-12.2,0-19.3,0-1.6-.9-3.2-1.7-5.2,5.6-6.9,11.5-13.3,17.4-19.8,1.8,1.5,3.6,3,5.5,5.2,0,16.2-.1,31.6-.2,47Z"/>
  <path class="st30" d="M470.7,556.5c0-15.9.1-31.3.3-47.2,1.6.7,3,1.8,4.6,3.2,0,11,0,21.8,0,33.4,0,7.3,0,13.6,0,20.5,0,8.4-.2,16.4,0,24.4,0,1.8.7,4,1.9,5.2,13.6,13.4,27.4,26.7,41.3,40.2,1.4,1.1,2.6,1.9,3.8,2.8.1,1.3.3,2.6.4,4.4-.4,1-.8,1.7-1.6,2.1-4.8-4.5-9.1-8.9-13.5-13.2-9.2-8.9-18.3-17.7-27.4-26.6-2.9-2.9-5.9-5.7-8.5-8.9-.9-1.1-1-3.1-1-4.6-.1-11.8-.1-23.5-.2-35.8Z"/>
  <g>
    <path class="st12" d="M442.8,292c17.8-5.5,35.6-11,53.7-16.7,7.7-1.9,15.1-3.6,23-4.8,0,22.3-.9,44.2-1.3,66.2-.2,11.5.4,22.9.3,34.4-1.8-.8-3.6-1.2-4.5-2.4-4.5-6.2-10.7-5.8-17.1-4.8-4.1.6-8.8-.9-12.2,2.9-.3.3-1.8-.5-2.7-.6-7.5-1.1-15.3-.8-22.1-5.1-.1,0-.3,0-.5,0-3.2-1.2-7.6-1.5-9.4-3.8-4.2-5.2-11-3.7-15.6-7.2-1.5-1.1-3.2-2-4.6-3.1-1.1-.8-2-1.9-3.1-3.4-.2-14.3-.3-28.1-.4-42.1,0-.2.3-.6.7-.6,4.6-1.5,8.9-2.8,12.9-4.6,1.3-.6,1.9-2.8,2.8-4.3Z"/>
    <path class="st6" d="M426.7,300.8s-.2.4-.6.7c-1.6.5-2.7.7-3.8,1.1-26.5,9.6-53,19.2-79.4,29-2.9,1.1-5.4,3.4-8.4,5.4-.4,1.8-.7,3.3-.7,4.8,0,17,0,34.1-.2,51.5-.3,11.1-.5,21.9-1.1,32.7-1.6.4-2.9.8-4.2,1.2-.1-1.8-.4-3.6-.4-5.5,0-27,.1-54-.1-80.9,0-6.5,2.6-10.5,8.2-12.8,4.7-2,9.6-3.6,14.7-5.7,4.6-1.6,9.1-2.8,13.4-4.3,20.6-7,41.3-14,62.2-20.7.4,1.4.4,2.4.4,3.5Z"/>
    <path class="st11" d="M328.2,427.7c1.4-.8,2.7-1.2,4.3-1.2.4,9.2.4,17.9.4,27-.2.7-.3,1.1-.8,1.5-1.4.4-2.5.7-3.6,1.1-.2-5.4-.3-10.7-.6-16.6,0-4.1,0-7.7.2-11.8Z"/>
    <path class="st11" d="M328.4,527.4c0-1.6,0-2.8,0-4.6,0-1-.1-1.4,0-2.1,0-.9,0-1.4-.1-1.9,0-10.3.2-20.7.7-31.5,1.6-.5,2.7-.5,3.8,0,1.1,3.2-2.4,7.7,2.8,8.6,3.1.5,6.5-.2,9.4-.3.4,1.6.8,4.3,1.1,4.3,4.6,0,8.5,1.7,12.3,4,.3.2.9-.5,1.4-.4,2.2.3,4.4.5,6.6,1,1.8.4,3.6,1.6,5.4,1.6,3,0,5.3,0,6.5,3.7,1.1,3.4,3.4,6.3,5.5,10,0-2,.2-3.6.2-5.2,0-9.5,0-18.9,0-28.4,0-1.9-.6-4.3,2.8-3.7.1,33.8,0,67.2.2,100.5,0,2.1.6,4.2.7,6.6-8.8,10.9-17.4,21.5-26.2,32.2-2.4,2.7-4.6,5.3-6.8,7.8-1-.8-2-1.6-3.3-2.6-3.3-4.1-6.1-8.2-9.2-12-9.4-11.4-14.8-24-13.4-39.1.3-3.6,0-7.3-.1-11.4,0-12.5,0-24.5,0-37Z"/>
    <path class="st11" d="M332.7,486.8c-1.1,0-2.2,0-3.7,0-.5-10-.7-20-.6-30.4,1.3-.8,2.4-1.1,3.9-1.1.4,10.7.5,21.1.5,31.4Z"/>
    <path class="st11" d="M427.1,300.9c-.4-1.1-.4-2.1-.4-3.6,5.1-2.1,10.3-3.8,15.8-5.4-.5,1.5-1.1,3.7-2.4,4.3-4,1.9-8.3,3.2-12.9,4.6Z"/>
    <path class="st11" d="M518.5,371c.5,7.2.6,14.4.6,22.5.1,8,.4,15.1.8,22.2,0,.8,1.3,1.5,2,2.2,0,.4.2.8.4,1.3.2.8.2,1.5.1,2.8,0,.5,0,.5,0,.5,0,.6.1,1.1.2,2.6,0,2.6.1,4.3.1,6.5-.1,7.5-.2,14.5-.2,21.7,0,0,0,.2-.2.4-2.9,2.3-5.5,4.5-8.4,6.6-2-1.4-3.8-2.6-5.3-4.1-23.3-22-46.6-44-69.8-66.2-4.1-3.9-8-7.4-14-7.1.3-2.2.6-4,.9-6.2.1-9.5.2-18.5.3-27.9.3-1.8.6-3.2.8-4.7,1,1,1.9,2,3,2.9,1.5,1.1,3.2,2,4.6,3.1,4.6,3.5,11.4,1.9,15.6,7.2,1.9,2.3,6.2,2.6,9.4,3.8.1,0,.4,0,.5,0,6.8,4.3,14.6,4,22.1,5.1,1,.1,2.4,1,2.7.6,3.4-3.8,8.1-2.3,12.2-2.9,6.4-1,12.6-1.4,17.1,4.8.9,1.2,2.7,1.6,4.5,2.4Z"/>
    <path class="st12" d="M426.7,343.5c-.2,1.9-.5,3.3-1.2,5.1-2.7-1.9-5.1-4.2-7.6-6.7-8.9,6.5-18.5,5.9-29,3.6-6-1.3-12.7.2-19,1.1-4.1.6-8.1,2.2-12.2,3-3.1-7-6.5-8-12.9-4.6-3.5-3-6.8-5.6-10.1-8.3,2.7-1.7,5.2-4,8.1-5.1,26.4-9.8,52.9-19.4,79.4-29,1.1-.4,2.2-.6,3.7-.9.5,13.7.6,27.5.8,41.8Z"/>
    <path class="st11" d="M522,417.5c-.8-.3-2-1-2.1-1.8-.5-7.1-.7-14.2-.9-21.8,1,3.4,2.3,7.3,2.9,11.3.5,3.9.2,7.9.2,12.3Z"/>
    <path class="st12" d="M390.8,383.1c-.7,0-1.4,0-2.8,0-1.2,1.4-2.1,2.9-2.1,4.3-.2,6.8,0,13.7-.5,20.6-.8,1.6-.9,3.2-1.7,4.5-1.6,2.8-3.2,5.9-5.6,7.7-1,.7-4.4-1.9-6.6-3.1-8.5-4.7-16.8-9.9-25.5-14-4.7-2.2-9.9-3.1-10.7-9.4,0-.3-1.1-.5-1.7-.8,0-17,0-34.1,0-51.1,0-1.5.3-2.9.7-4.8,3.6,2.3,6.9,5,10.3,8.3-2.3,6-1,9.9,3.8,11.3,4.3,1.3,6.8-1.1,9-3.9-.8,5.4-1.5,10.2,4.8,12.3.1,0,.3.2.3.4,6,9.2,15.3,13,25.6,15.3,2.2.5,4.4.9,6.2,1.3-1.5.4-2.6.7-3.7,1.1Z"/>
    <path class="st12" d="M333.5,393.4c.7-.1,1.8,0,1.8.4.8,6.4,6,7.2,10.7,9.4,8.8,4.1,17,9.3,25.5,14,2.2,1.2,5.6,3.8,6.6,3.1,2.5-1.7,4-4.9,5.6-7.7.8-1.3.9-2.9,1.7-4.1.4,5.4.4,10.3.1,15.4-8.4,4.5-16.4,8.8-24.4,13.3-9.4,5.3-18.8,10.7-28.1,16,0-8.7,0-17.5-.1-26.7.2-11.2.4-22,.7-33.1Z"/>
    <path class="st11" d="M332.9,453.5c9.4-5.6,18.8-11,28.2-16.3,8-4.5,16-8.8,24.6-13.2.6,0,1,0,1,0,0,19,0,38.1,0,57.5-3.3.3-2.8,2.7-2.8,4.6,0,9.5,0,18.9,0,28.4,0,1.6-.1,3.2-.2,5.2-2.1-3.7-4.4-6.6-5.5-10-1.2-3.8-3.5-3.6-6.5-3.7-1.8,0-3.5-1.2-5.4-1.6-2.2-.5-4.4-.7-6.6-1-.4,0-1.1.6-1.4.4-3.8-2.3-7.7-4.1-12.3-4-.4,0-.7-2.7-1.1-4.3-2.9.1-6.3.9-9.4.3-5.2-.9-1.7-5.4-2.8-8.6,0-10.8,0-21.1-.2-31.9,0-.8.2-1.2.4-1.9Z"/>
    <path class="st11" d="M394.8,382c-2.2-.4-4.4-.9-6.6-1.3-10.2-2.2-19.5-6-25.6-15.3,0-.1-.2-.3-.3-.4-6.3-2.1-5.6-6.9-4.7-12.5,0-1.3.1-1.9.2-2.5,4-1.2,8-2.8,12.2-3.4,6.3-.9,13-2.4,19-1.1,10.5,2.3,20.1,3,29-3.6,2.5,2.5,4.8,4.7,7.5,7,.3,9,.3,18-.3,27.5-7.8,2.1-15.1,3.8-22.9,5.5-2.8,0-5.2,0-7.5,0Z"/>
    <path class="st11" d="M402.8,382c7.3-1.7,14.6-3.3,22.4-5,.1,1.8-.1,3.6-.4,5.8-7,.4-14,.5-21.5.2-.5-.5-.5-.7-.5-.9Z"/>
    <path class="st11" d="M357.7,349.6c0,.9,0,1.5-.2,2.4-2.2,3.5-4.7,6-9,4.6-4.7-1.5-6-5.4-3.5-11,6.3-4,9.6-3,12.8,4Z"/>
    <path class="st11" d="M465.3,503.5c-5.8,6.8-11.7,13.3-17.8,20.1-.1.3-.4.3-.5.2-.1-12.3-.1-24.5-.1-38.1,6.6,6.3,12.5,11.9,18.4,17.8Z"/>
  </g>
  <path class="st13" d="M447,569.5c3.7-.4,2.7,2.4,2.7,4.3,0,14.1,0,28.2,0,43.2,0,6.3,0,11.6-.3,17-.8.7-1.2,1.3-1.9,1.9-.2,0-.7,0-.7,0,0,0,0-.4,0-.5,0-22,0-43.7.2-65.9Z"/>
  <path class="st19" d="M386.9,423.7c-.2.3-.7.3-.9.3-.2-5-.3-10-.3-15.5,0-7.3,0-14.1,0-21,0-1.5.9-2.9,1.8-4.4.2,5.3-.1,10.5-.2,15.8-.2,8.1-.2,16.3-.5,24.7Z"/>
  <path class="st19" d="M402.4,382c.4.2.5.4.5.8-3.8.4-7.6.5-11.7.5.8-.6,1.9-.9,3.3-1.3,2.7,0,5.1,0,7.9,0Z"/>
  <path class="st13" d="M579,415.3c-1.7-3.5.7-3.9,3.8-4.3-.9,1.4-2.2,2.7-3.8,4.3Z"/>
  <path class="st13" d="M576,418.8c-1.9-2.3-1-3.4,2-3.2-.4,1.2-1.1,2.1-2,3.2Z"/>
  <path class="st0" d="M521.9,468.4c.5-.6,1.1-.9,2.1-1-.4.5-1.2.9-2.1,1Z"/>
  <path class="st31" d="M601.9,520.6c1.5-1.3,3.2-2.1,4.5-3.3,10.5-9.5,20.9-19.1,31.4-29,6.4-6.1,12.7-11.9,19.2-18.3.2-.5.5-.9.5-.9.5,1.6,1.3,3.2,1.4,4.9.1,6.7,0,13.4,0,21,0,3.6.1,6.3.2,9,0,10,0,20-.1,30.9,0,15.6.1,30.3.1,45.5.6,5.5-1.3,9.1-5.7,12-4.5,3-8.4,6.9-13,10.5-8.8,7.1-17.3,14.1-26.1,21.2-4.8,3.5-9.2,6.8-13.7,10.1-.4.3-1.4-.1-2-.6,0-8.8,0-17.2,0-26,0-6.2,0-11.8-.1-17.5,0-7.4.1-14.7,0-22.6,0-13,.2-25.6,0-38.2,0-3.4.5-6.1,3.2-8.6Z"/>
  <path class="st1" d="M659.2,579.9c0-14.7-.2-29.4-.1-44.6.7-1.8,1.7-3.2,1.7-4.6.2-5.9,0-11.9.1-18.3,1.5-.2,2.9,0,4.3.2,3.1.5,6.2,1.1,10.6,1.9,0,3-.1,7.3,0,11.6,0,1.6.9,3.1,1.8,4.7.4,14.1.4,28.1,0,42.5-.9-1.4-1.7-3.2-1.7-5-.2-5.7,0-11.4,0-17.6-6.4,3.9-8.5-2.6-13.3-3.7-3.3,9.9-1.1,20-1.7,30.2-.6,1.1-1.1,1.8-1.7,2.6Z"/>
  <path class="st17" d="M659.3,503.7c-.3-2.4-.4-5.1-.4-8.2.3,2.3.5,5.1.4,8.2Z"/>
  <path class="st17" d="M657.3,469.1c.1,0,0,.4-.2.6-.3-.2-.2-.4.2-.6Z"/>
  <path class="st20" d="M614.6,623.9c8.5-7,16.9-14,25.9-20.8,2.8.4,5.4-.2,5.5,3.6,0,.9,2.2,1.6,3.1,2.6,2.3,2.6,7.4,2.3,7.8,7.3,0,.7,0,1.1-.1,1.4-4.7,4.6-9.4,9.3-14.3,14.2-.1.3-.1.4-.4.5-.9.9-1.6,1.6-2.3,2.3-.3.2-.5.4-1.2.9-1,1.1-1.6,1.8-2.2,2.6,0,0,0,0-.3.1-.6.5-1,.9-1.4,1.4,0,0,0,0-.3,0-.8.7-1.3,1.3-1.8,1.9,0,0,0,0-.2,0-.3,0-.7,0-.7-.4,2.5-7.1,2.6-7.6-3.2-8.9-4.8-1.1-8.2-3.4-11-7.2-.6-.8-2-1-3-1.5Z"/>
  <path class="st17" d="M656.9,616.3c-.4-4.7-5.5-4.4-7.8-7-.9-1-3-1.7-3.1-2.6-.1-3.8-2.8-3.2-5.2-3.7,4-3.8,7.9-7.7,12.4-10.7,4.4-2.9,6.3-6.5,5.7-12,.7-1.2,1.2-1.9,2.2-3,4.9,2.7,9.5,5.8,13.2,8.3,1.5,2.2,2.5,3.8,3.5,5.4.8,3.6-.3,6.4-3,8.8-2.7,2.4-5.2,5.1-8.2,8.1-1.2,1.3-2,2.2-2.8,3.1-1.6,1.5-3.2,2.9-5.3,4.7-.9.4-1.3.4-1.8.5Z"/>
  <path class="st14" d="M678,590.5c-1.1-1.1-2.1-2.7-3.6-4.9-3.7-2.5-8.3-5.6-13.2-8.6.3-9.9-2-20,1.3-29.9,4.8,1.1,6.9,7.6,13.3,3.7,0,6.3-.1,12,0,17.6,0,1.8.8,3.6,1.7,5.5.5,5.4.5,10.8.5,16.6Z"/>
  <path class="st10" d="M664.3,611c.4-.9,1.2-1.8,2.3-2.7-.5.8-1.2,1.8-2.3,2.7Z"/>
  <path class="st10" d="M656.9,616.6c.4-.3.8-.4,1.6-.5-.1.6-.6,1.2-1.4,1.9-.3-.3-.2-.7-.2-1.4Z"/>
  <path class="st27" d="M450.8,672.9c1.2.7,2.1,1.4,3.1,2.4-.8,1.3-1.8,2.4-3.4,4.1-1.2-1.8-2.3-3.2-3.3-4.7,1.1-.6,2.1-1.1,3.6-1.8Z"/>
  <path class="st22" d="M446.9,636.3c0-.4.5-.4,1.1-.4,1-.7,1.5-1.3,1.9-1.9,0-5.4,0-10.7,0-16.5,1.5-.7,3.1-.6,4.3-1.3,3.7-2.2,7.3-1.2,10.4.8,7.4,4.7,15.3,5.6,23.8,4.4,1-.1,3.1,1.5,3.2,2.4.8,8.7,1.3,9.4,9.5,11.1,2.4.5,4.7,1.1,7.5,1.7-.2-1.3-.4-2.3-.5-3.8,4.4,3.9,8.7,8.3,13.2,12.9-.8,8.3-1.7,16.3-2.8,24.8-1.5,0-3.4.2-4.1-.7-2.8-3.6-6.3-7.2-7.4-11.3-1.9-7-7-8.1-12.3-8.2-8.1-.1-14.7-2.6-21.7-6.7-4.4-2.6-11.1-1.6-16.8-2-1.8-.1-3.6.4-5.4.5-4.1.3-5.7-1.3-3.8-5.7Z"/>
  <path class="st5" d="M556.9,664.2c.2-4.8-2.6-7.1-6.7-8.6-1.8-.6-4.1-1-5.3-2.3-4.7-5.1-10.3-7.6-18-7.5,0-5.4,0-10.6.5-16.3,11.3.8,22.1,2.2,32.9,3.4,13.6,1.5,26.9,4,39.2,10.2,5.6,2.9,10.3,2.9,15.7-.4,3.8-2.4,11.7-.6,13.8,2.3-3.3,3.4-6.4,6.9-10,10.1-1,.9-3.1,1-4.7,1-14.6,0-29.2,0-43.8.1-1.7,0-3.5.7-5.7,1.4-1,1-1.5,1.7-2,2.3-.9.8-1.8,1.6-3.1,2.7-1.2.7-2,1.1-2.7,1.5Z"/>
  <path class="st26" d="M629.1,645c-2.3-2.9-10.2-4.7-14-2.3-5.4,3.3-10.1,3.3-15.7.4-12.2-6.3-25.6-8.7-39.2-10.2-10.8-1.2-21.6-2.6-32.9-3.9-.8-5.2-1-10.4-1.6-15.6-.1-1.2-1.4-2.2-2.7-3.6-.5-.2-.6-.6-.5-1.1.2-3.2.2-6,.7-8.8,1,.2,2,.3,2.1.7,2,7.1,7.9,7,13.6,8.5,14.7,4.1,30.5,4.3,44.4,11.4,1.5.8,3.5.6,5.2.7,6.5.2,7.2,1,7.4,7.6,0,2-1.4,5.1,2.6,5.1.7,0,1.7.5,2.1.2,4.5-3.3,8.9-6.6,13.7-10.1,1.3.3,2.7.6,3.3,1.3,2.8,3.8,6.2,6.1,11,7.2,5.8,1.3,5.7,1.8,3,9.2-.8,1.5-1.4,2.3-2,3.1,0,0-.4,0-.6,0Z"/>
  <path class="st3" d="M556.8,664.5c.8-.7,1.6-1.1,2.7-1.5-1.5,1.9-3.2,4-5.4,6,.6-1.4,1.6-2.7,2.7-4.4Z"/>
  <path class="st3" d="M551,671.9c.4-1,1.3-1.9,2.4-3-.5.9-1.2,2-2.4,3Z"/>
  <path class="st29" d="M630,644.9c.2-.8.8-1.6,1.6-2.7.2-.3.7-.3.9-.3-.6,1-1.3,2-2.5,3Z"/>
  <path class="st29" d="M636.8,638.6c.2-.9.8-1.7,1.7-2.5.3.7.3,1.4.3,2.5-.5.3-1.1.2-2,0Z"/>
  <path class="st3" d="M563.1,659.9c.1-.6.6-1.3,1.4-2-.2.6-.6,1.3-1.4,2Z"/>
  <path class="st29" d="M633.1,641.9c.2-.6.7-1.2,1.4-1.9-.2.6-.6,1.2-1.4,1.9Z"/>
  <path class="st29" d="M635.1,640c0-.4.4-.8,1-1.3,0,.4-.4.9-1,1.3Z"/>
  <path class="st29" d="M640.2,635c.3-.7,1-1.5,1.9-2.3.4.4.5,1,.7,1.9-.7.4-1.5.4-2.6.4Z"/>
  <path class="st0" d="M522.4,609.2s.2.4.2.6c0,1.2,0,2.3-.5,3.8-1.1,1.9-2.1,3.3-2.2,4.8-.5,5.9-.8,11.8-1.1,17.6-13.7-13.3-27.5-26.5-41.1-39.9-1.2-1.2-1.9-3.5-1.9-5.2-.2-8,0-16,.4-24.3.9,1.3,1.6,2.9,1.6,4.6.2,5.4,0,10.8,0,16.1.9.2,1.2.4,1.5.3,9.5-1.4,18.7-2.6,28,1.8,4.4,2.1,10.1,1.2,15.3,2.1,0,2.8,0,5.1-.5,7.5-4.1,2.3-3.7,5.7-2.7,9,.2.6,1.9.8,2.9,1.2Z"/>
  <path class="st28" d="M518.9,636.3c.2-6.1.4-12,1-17.9.1-1.5,1.2-2.9,2.1-4.4.5,8,.6,16.1.7,24.6-1.2-.4-2.4-1.2-3.8-2.3Z"/>
  <path class="st17" d="M598.2,590c.5,5.7.5,11.4.1,17.5-1.2-.8-2.4-2.1-2.4-3.4,0-3-1-4.7-4-5.3-2.6-.5-5.1-1.4-7.6-1.9-10-2-20-4-30-6-8.8-1.7-17.5-5.1-26.6-1.2-1.4.6-3.3.2-5-.2,0-5.8,0-11.1,0-16.5,0-1.4,0-2.8,0-4.6,1.2-.4,2.5,0,3.5-.6,10.4-5.5,20.6-1.2,30.8.7,9.1,1.7,18.1,3.5,27.1,5.4,3.7.8,7.2,2.3,11.7,3.8,0,2.4-.2,5.4,0,8.2.1,1.3,1.2,2.6,2.3,3.9Z"/>
  <path class="st28" d="M522.3,573c.4,5.4.4,10.7.4,16.8,0,.9-.1,1.1-.2,1.3-5.1-.5-10.8.4-15.2-1.7-9.4-4.4-18.6-3.2-28-1.8-.3,0-.6-.1-1.5-.3,0-5.3,0-10.7,0-16.1,0-1.7-.8-3.3-1.6-5-.4-6.4-.5-12.8-.4-19.6,1.9,1.5,3.3,4.1,5.5,5.4,12.6,7.2,25.5,14,38.3,20.9.7.4,1.6.2,2.8.3Z"/>
  <path class="st27" d="M449.5,634c-.1.6-.6,1.2-1.4,1.9.1-.6.6-1.2,1.4-1.9Z"/>
  <path class="st20" d="M522.7,591.5c0-.6,0-.8.1-1.2,1.7-.3,3.5.1,5-.5,9.1-3.8,17.8-.5,26.6,1.2,10,2,20,4,30,6,2.6.5,5.1,1.4,7.6,1.9,3,.6,4.1,2.2,4,5.3,0,1.2,1.2,2.5,2.3,3.8.4,8.4.5,16.7.4,25.6-4.1.4-2.7-2.7-2.7-4.7-.2-6.6-.8-7.3-7.4-7.6-1.8,0-3.7,0-5.2-.7-14-7.1-29.7-7.3-44.4-11.4-5.6-1.6-11.6-1.5-13.6-8.5,0-.4-1.1-.4-2.2-.9-.5-.5-.5-.6-.6-.8,0-2.3.1-4.7.1-7.4Z"/>
  <path class="st28" d="M522.2,599c.4.1.5.3.6.8,0,3,0,5.8-.2,9-1.1,0-2.8-.1-3-.8-1-3.4-1.5-6.8,2.7-9Z"/>
  <text class="st16" transform="translate(772.4 572.9)"><tspan x="0" y="0"></tspan></text>
</svg>