<?xml version="1.0" standalone="no"?><!DOCTYPE svg PUBLIC "-//W3C//DTD SVG 1.1//EN" "http://www.w3.org/Graphics/SVG/1.1/DTD/svg11.dtd"><svg t="1760119039823" class="icon" viewBox="0 0 1024 1024" version="1.1" xmlns="http://www.w3.org/2000/svg" p-id="6824" xmlns:xlink="http://www.w3.org/1999/xlink" width="200" height="200"><path d="M739.5555552 608.75662187V603.02222187a45.51111147 45.51111147 0 0 1 91.02222293 0v5.7344c16.70257813 4.2780448 32.49493333 10.92266667 46.96746667 19.47875626l4.096-4.096a45.51111147 45.51111147 0 0 1 64.3527104 64.39822187l-4.096 4.05048853c8.55608853 14.47253333 15.20071147 30.26488853 19.47875627 46.96746667H967.11111147a45.51111147 45.51111147 0 0 1 0 91.02222293h-5.7344c-4.2780448 16.70257813-10.92266667 32.49493333-19.47875627 46.96746667l4.096 4.096a45.51111147 45.51111147 0 0 1-64.39822187 64.3527104l-4.05048853-4.096a180.95217813 180.95217813 0 0 1-46.96746667 19.47875627V967.11111147a45.51111147 45.51111147 0 0 1-91.02222293 0v-5.7344a180.95217813 180.95217813 0 0 1-46.96746667-19.47875627l-4.096 4.096a45.51111147 45.51111147 0 0 1-64.3527104-64.3527104l4.096-4.096A180.95217813 180.95217813 0 0 1 608.75662187 830.57777813H603.02222187a45.51111147 45.51111147 0 0 1 0-91.02222293h5.7344c4.2780448-16.70257813 10.92266667-32.49493333 19.47875626-46.96746667l-4.096-4.096a45.51111147 45.51111147 0 0 1 64.39822187-64.3527104l4.05048853 4.096A180.95217813 180.95217813 0 0 1 739.5555552 608.75662187zM479.68711147 876.08888853H56.88888853a45.51111147 45.51111147 0 0 1-45.5111104-45.5111104v-45.51111146a364.08888853 364.08888853 0 0 1 606.79964374-271.42826667A318.39573333 318.39573333 0 0 0 466.48888853 785.06666667c0 31.63022187 4.59662187 62.16817813 13.19822294 91.02222186zM375.46666667 420.97777813c-100.5795552 0-182.0444448-91.70488853-182.0444448-204.8S274.88711147 11.37777813 375.46666667 11.37777813s182.0444448 91.70488853 182.0444448 204.8S476.04622187 420.97777813 375.46666667 420.97777813z m409.6 455.1111104a91.02222187 91.02222187 0 1 0 0-182.04444373 91.02222187 91.02222187 0 0 0 0 182.04444373z" p-id="6825" fill="#cdcdcd"></path></svg>