<?xml version="1.0" standalone="no"?><!DOCTYPE svg PUBLIC "-//W3C//DTD SVG 1.1//EN" "http://www.w3.org/Graphics/SVG/1.1/DTD/svg11.dtd"><svg t="1760647360862" class="icon" viewBox="0 0 1314 1024" version="1.1" xmlns="http://www.w3.org/2000/svg" p-id="11084" xmlns:xlink="http://www.w3.org/1999/xlink" width="256.640625" height="200"><path d="M503.315257 277.467529m-277.467528 0a277.467529 277.467529 0 1 0 554.935057 0 277.467529 277.467529 0 1 0-554.935057 0Z" fill="#13227a" p-id="11085"></path><path d="M679.675502 662.61698H326.955013A327.887901 327.887901 0 0 0 0 989.571993a34.516854 34.516854 0 0 0 34.428007 34.428007h937.818924a34.516854 34.516854 0 0 0 34.428007-34.428007 327.887901 327.887901 0 0 0-326.999436-326.955013zM771.142944 463.512039a204.835539 204.835539 0 1 0 49.754024-275.42406 310.074183 310.074183 0 0 1-49.754024 275.42406z" fill="#13227a" p-id="11086"></path><path d="M1073.531908 633.65303H812.945208c-6.752332 0-13.326971 0.355386-20.079302 0.888465a363.648605 363.648605 0 0 1 259.520541 265.873064h236.997961A25.498937 25.498937 0 0 0 1314.927769 875.137738a242.106633 242.106633 0 0 0-241.395861-241.484708z" fill="#13227a" p-id="11087"></path></svg>