<?xml version="1.0" standalone="no"?><!DOCTYPE svg PUBLIC "-//W3C//DTD SVG 1.1//EN" "http://www.w3.org/Graphics/SVG/1.1/DTD/svg11.dtd"><svg t="1760118593808" class="icon" viewBox="0 0 1024 1024" version="1.1" xmlns="http://www.w3.org/2000/svg" p-id="5787" xmlns:xlink="http://www.w3.org/1999/xlink" width="200" height="200"><path d="M921.6 119.488h-34.112v-34.176c0-37.696-30.592-68.224-68.288-68.224H204.8c-37.76 0-68.288 30.528-68.288 68.224v34.176H102.4c-56.448 0-102.4 45.888-102.4 102.4v68.224c0 56.512 45.952 102.4 102.4 102.4h34.112c0 195.008 150.72 356.48 341.376 373.824V870.4H382.08a34.112 34.112 0 0 0-32 22.144l-25.6 68.288a34.112 34.112 0 0 0 32 46.08h311.04a34.112 34.112 0 0 0 32-46.08l-25.6-68.288a34.112 34.112 0 0 0-32-22.144H546.112v-104.064c190.72-17.344 341.376-178.816 341.376-373.76h34.112c56.448 0 102.4-45.952 102.4-102.4V221.824c0-56.448-45.952-102.4-102.4-102.4z m-819.2 204.8a34.176 34.176 0 0 1-34.112-34.176V221.888c0-18.816 15.296-34.176 34.112-34.176h34.112v136.576H102.4z m541.696-1.728l-55.04 56.32 12.416 77.376a15.552 15.552 0 0 1-14.72 20.416h-0.256a16.192 16.192 0 0 1-7.232-1.728l-67.392-37.568-67.392 37.12a15.552 15.552 0 1 1-22.784-16.128l13.12-79.808-54.976-56.512a15.36 15.36 0 0 1-3.584-15.744 15.36 15.36 0 0 1 12.416-10.432l75.52-11.328 33.92-72.064a15.552 15.552 0 0 1 28.16 0.064L560 284.8l75.392 11.584a15.36 15.36 0 0 1 12.352 10.432 15.424 15.424 0 0 1-3.648 15.744z m311.68-32.448c0 18.816-15.36 34.176-34.176 34.176h-34.112V187.712h34.112c18.816 0 34.112 15.36 34.112 34.176v68.224z" fill="#F6B931" p-id="5788"></path></svg>